<svg width="58" height="58" viewBox="0 0 58 58" fill="none" xmlns="http://www.w3.org/2000/svg">
<path d="M57.9797 17.2368C57.9751 17.0273 57.9469 16.8191 57.8956 16.6159C57.8753 16.5434 57.8347 16.4737 57.8086 16.4012C57.7477 16.2358 57.6926 16.0733 57.6056 15.9225C57.5592 15.8441 57.4954 15.7803 57.4403 15.7048C57.3475 15.5743 57.2576 15.4408 57.1445 15.3276C57.0778 15.2638 56.9908 15.2116 56.9183 15.1507C56.8052 15.0578 56.7008 14.9563 56.5703 14.8779C56.5587 14.8692 56.5442 14.8692 56.5297 14.8605L56.5065 14.8431L30.4674 0.364716C30.0371 0.126001 29.5533 0.000509032 29.0613 1.54533e-06C28.5693 -0.000505941 28.0852 0.123988 27.6544 0.361815L1.4935 14.8402C1.4848 14.8489 1.4761 14.8605 1.4616 14.8692L1.4326 14.8808C1.3311 14.9388 1.2557 15.023 1.16 15.0926C1.0556 15.171 0.9454 15.2406 0.8526 15.3305C0.7656 15.4205 0.6989 15.5249 0.6235 15.6265C0.5452 15.7281 0.4582 15.818 0.3944 15.9283C0.319 16.053 0.2784 16.1952 0.2233 16.3316C0.1827 16.4273 0.1305 16.5173 0.1044 16.6217C0.0543154 16.8211 0.0261153 17.0255 0.0202999 17.231C0.0173999 17.2803 0 17.3239 0 17.3761V40.5937C0 41.647 0.5713 42.619 1.4935 43.1296L27.5297 57.5993L27.5326 57.6022L27.5384 57.6051L27.5964 57.637C27.7211 57.7067 27.8574 57.7444 27.9879 57.7937C28.0807 57.8314 28.1706 57.8807 28.2692 57.9069C28.7505 58.031 29.2553 58.031 29.7366 57.9069C29.8323 57.8807 29.9222 57.8314 30.0179 57.7937C30.1484 57.7444 30.2847 57.7096 30.4094 57.637L30.4674 57.6051L30.4732 57.6022L30.4761 57.5993L56.5123 43.1296C57.4287 42.619 58 41.647 58 40.5937V17.3761C58 17.3268 57.9826 17.2861 57.9797 17.2368ZM28.9188 28.6164L8.8682 17.3964L16.878 12.9629L36.6966 24.2932L28.9188 28.6164ZM29.058 6.2199L49.1289 17.3819L42.6213 21L22.8143 9.67556L29.058 6.2199ZM5.8 22.3289L26.1 33.6911V50.1715L5.8 38.8848V22.3289ZM31.9 50.1715L31.9058 33.694L40.6 28.8253V37.6922L46.4 34.7908V25.5786L52.2 22.3318V38.8848L31.9 50.1715Z" fill="#E6677B"/>
</svg>
