<?xml version="1.0" encoding="utf-8"?>
<!-- Generator: Adobe Illustrator 23.0.5, SVG Export Plug-In . SVG Version: 6.00 Build 0)  -->
<svg version="1.1" id="Capa_1" xmlns="http://www.w3.org/2000/svg" xmlns:xlink="http://www.w3.org/1999/xlink" x="0px" y="0px"
	 viewBox="0 0 18 18" style="enable-background:new 0 0 18 18;" xml:space="preserve">
<style type="text/css">
	.st0{fill:#F78A0E;fill-opacity:0.6;}
</style>
<path class="st0" d="M8.3,1.5v6c0,0.1,0,0.2-0.1,0.3C8.2,7.9,8.1,8,8,8C8,8.1,7.9,8.2,7.8,8.2c-0.1,0-0.2,0.1-0.3,0.1h-6
	c-0.1,0-0.2,0-0.3-0.1C1.1,8.2,1,8.1,1,8C0.9,8,0.8,7.9,0.8,7.8c0-0.1-0.1-0.2-0.1-0.3v-6c0-0.1,0-0.2,0.1-0.3C0.8,1.1,0.9,1,1,1
	s0.2-0.1,0.2-0.2c0.1,0,0.2-0.1,0.3-0.1h6c0.1,0,0.2,0,0.3,0.1C7.9,0.8,8,0.9,8,1C8.1,1,8.2,1.1,8.2,1.2C8.2,1.3,8.3,1.4,8.3,1.5z
	 M16.5,0.8h-6c-0.1,0-0.2,0-0.3,0.1C10.1,0.8,10,0.9,10,1C9.9,1,9.8,1.1,9.8,1.2c0,0.1-0.1,0.2-0.1,0.3v6c0,0.1,0,0.2,0.1,0.3
	C9.8,7.9,9.9,8,10,8c0.1,0.1,0.2,0.1,0.2,0.2c0.1,0,0.2,0.1,0.3,0.1h6c0.1,0,0.2,0,0.3-0.1C16.9,8.2,17,8.1,17,8
	c0.1-0.1,0.1-0.2,0.2-0.2c0-0.1,0.1-0.2,0.1-0.3v-6c0-0.1,0-0.2-0.1-0.3C17.2,1.1,17.1,1,17,1c-0.1-0.1-0.2-0.1-0.2-0.2
	S16.6,0.7,16.5,0.8z M7.5,9.8h-6c-0.1,0-0.2,0-0.3,0.1C1.1,9.8,1,9.9,1,10c-0.1,0.1-0.1,0.2-0.2,0.2c0,0.1-0.1,0.2-0.1,0.3v6
	c0,0.1,0,0.2,0.1,0.3S0.9,17,1,17c0.1,0.1,0.2,0.1,0.2,0.2c0.1,0,0.2,0.1,0.3,0.1h6c0.1,0,0.2,0,0.3-0.1C7.9,17.2,8,17.1,8,17
	c0.1-0.1,0.1-0.2,0.2-0.2c0-0.1,0.1-0.2,0.1-0.3v-6c0-0.1,0-0.2-0.1-0.3C8.2,10.1,8.1,10,8,10C8,9.9,7.9,9.8,7.8,9.8
	C7.7,9.8,7.6,9.7,7.5,9.8z M16.5,9.8h-6c-0.1,0-0.2,0-0.3,0.1C10.1,9.8,10,9.9,10,10c-0.1,0.1-0.1,0.2-0.2,0.2
	c0,0.1-0.1,0.2-0.1,0.3v6c0,0.1,0,0.2,0.1,0.3S9.9,17,10,17c0.1,0.1,0.2,0.1,0.2,0.2c0.1,0,0.2,0.1,0.3,0.1h6c0.1,0,0.2,0,0.3-0.1
	c0.1,0,0.2-0.1,0.2-0.2c0.1-0.1,0.1-0.2,0.2-0.2c0-0.1,0.1-0.2,0.1-0.3v-6c0-0.1,0-0.2-0.1-0.3c0-0.1-0.1-0.2-0.2-0.2
	c-0.1-0.1-0.2-0.1-0.2-0.2S16.6,9.7,16.5,9.8z"/>
</svg>
