<svg width="69" height="69" viewBox="0 0 69 69" fill="none" xmlns="http://www.w3.org/2000/svg">
<path d="M31.125 44.8333H30.9529C30.1034 44.8333 29.2888 44.4958 28.6881 43.8952C28.0874 43.2945 27.75 42.4798 27.75 41.6304C27.75 40.7353 27.3944 39.8768 26.7615 39.2439C26.1285 38.611 25.2701 38.2554 24.375 38.2554C23.4799 38.2554 22.6215 38.611 21.9885 39.2439C21.3556 39.8768 21 40.7353 21 41.6304C21 44.27 22.0486 46.8016 23.9151 48.6681C25.7817 50.5346 28.3132 51.5833 30.9529 51.5833H31.125V54.9583C31.125 55.8534 31.4806 56.7118 32.1135 57.3447C32.7465 57.9777 33.6049 58.3333 34.5 58.3333C35.3951 58.3333 36.2535 57.9777 36.8865 57.3447C37.5194 56.7118 37.875 55.8534 37.875 54.9583V51.5833C40.5603 51.5833 43.1357 50.5165 45.0345 48.6177C46.9333 46.7189 48 44.1436 48 41.4583C48 38.7729 46.9333 36.1976 45.0345 34.2988C43.1357 32.4 40.5603 31.3333 37.875 31.3333V24.5833H37.9492C39.7718 24.5833 41.25 26.0615 41.25 27.884C41.25 28.7791 41.6056 29.6376 42.2385 30.2705C42.8715 30.9034 43.7299 31.259 44.625 31.259C45.5201 31.259 46.3785 30.9034 47.0115 30.2705C47.6444 29.6376 48 28.7791 48 27.884C48 25.2184 46.9411 22.6619 45.0562 20.7771C43.1713 18.8922 40.6149 17.8333 37.9492 17.8333H37.875V14.4583C37.875 13.5631 37.5194 12.7047 36.8865 12.0718C36.2535 11.4388 35.3951 11.0833 34.5 11.0833C33.6049 11.0833 32.7465 11.4388 32.1135 12.0718C31.4806 12.7047 31.125 13.5631 31.125 14.4583V17.8333C28.4397 17.8333 25.8643 18.9 23.9655 20.7988C22.0667 22.6976 21 25.2729 21 27.9583C21 30.6436 22.0667 33.2189 23.9655 35.1177C25.8643 37.0165 28.4397 38.0833 31.125 38.0833V44.8333ZM37.875 44.8333V38.0833C38.7701 38.0833 39.6285 38.4388 40.2615 39.0718C40.8944 39.7047 41.25 40.5631 41.25 41.4583C41.25 42.3534 40.8944 43.2118 40.2615 43.8447C39.6285 44.4777 38.7701 44.8333 37.875 44.8333ZM31.125 24.5833V31.3333C30.2299 31.3333 29.3715 30.9777 28.7385 30.3447C28.1056 29.7118 27.75 28.8534 27.75 27.9583C27.75 27.0631 28.1056 26.2047 28.7385 25.5718C29.3715 24.9388 30.2299 24.5833 31.125 24.5833ZM34.5 68.4583C15.8599 68.4583 0.75 53.3484 0.75 34.7083C0.75 16.0681 15.8599 0.958252 34.5 0.958252C53.1401 0.958252 68.25 16.0681 68.25 34.7083C68.25 53.3484 53.1401 68.4583 34.5 68.4583Z" fill="#FFC06D"/>
</svg>
