<svg width="24" height="24" viewBox="0 0 24 24" fill="none" xmlns="http://www.w3.org/2000/svg">
<path d="M14.76 1C14.3038 1 13.8663 1.18121 13.5438 1.50378C13.2212 1.82634 13.04 2.26383 13.04 2.72V6.16C13.04 6.61617 13.2212 7.05366 13.5438 7.37622C13.8663 7.69879 14.3038 7.88 14.76 7.88V10.46L17.856 7.88H21.64C22.0962 7.88 22.5337 7.69879 22.8562 7.37622C23.1788 7.05366 23.36 6.61617 23.36 6.16V2.72C23.36 2.26383 23.1788 1.82634 22.8562 1.50378C22.5337 1.18121 22.0962 1 21.64 1H14.76ZM7.02 5.3C6.10765 5.3 5.23268 5.66243 4.58755 6.30755C3.94243 6.95268 3.58 7.82766 3.58 8.74C3.58 9.65234 3.94243 10.5273 4.58755 11.1724C5.23268 11.8176 6.10765 12.18 7.02 12.18C7.93234 12.18 8.80732 11.8176 9.45245 11.1724C10.0976 10.5273 10.46 9.65234 10.46 8.74C10.46 7.82766 10.0976 6.95268 9.45245 6.30755C8.80732 5.66243 7.93234 5.3 7.02 5.3ZM11.32 13.9H2.72C2.03574 13.9 1.37951 14.1718 0.895664 14.6557C0.41182 15.1395 0.139999 15.7957 0.139999 16.48C0.139999 18.3995 0.929479 19.9372 2.22464 20.9778C3.49916 22.0012 5.20884 22.5 7.02 22.5C8.83116 22.5 10.5408 22.0012 11.8154 20.9778C13.1088 19.9372 13.9 18.3995 13.9 16.48C13.9 15.7957 13.6282 15.1395 13.1443 14.6557C12.6605 14.1718 12.0043 13.9 11.32 13.9Z" fill="#EBEBF5" fill-opacity="0.6"/>
</svg>
