<?xml version="1.0" encoding="utf-8"?>
<!-- Generator: Adobe Illustrator 23.0.5, SVG Export Plug-In . SVG Version: 6.00 Build 0)  -->
<svg version="1.1" id="Capa_1" xmlns="http://www.w3.org/2000/svg" xmlns:xlink="http://www.w3.org/1999/xlink" x="0px" y="0px"
	 viewBox="0 0 24 24" style="enable-background:new 0 0 24 24;" xml:space="preserve">
<style type="text/css">
	.st0{fill:#F6891F;fill-opacity:0.6;}
</style>
<path class="st0" d="M14.8,1c-0.5,0-0.9,0.2-1.2,0.5C13.2,1.8,13,2.3,13,2.7v3.4c0,0.5,0.2,0.9,0.5,1.2c0.3,0.3,0.8,0.5,1.2,0.5v2.6
	l3.1-2.6h3.8c0.5,0,0.9-0.2,1.2-0.5c0.3-0.3,0.5-0.8,0.5-1.2V2.7c0-0.5-0.2-0.9-0.5-1.2C22.5,1.2,22.1,1,21.6,1H14.8z M7,5.3
	c-0.9,0-1.8,0.4-2.4,1c-0.6,0.6-1,1.5-1,2.4s0.4,1.8,1,2.4c0.6,0.6,1.5,1,2.4,1c0.9,0,1.8-0.4,2.4-1c0.6-0.6,1-1.5,1-2.4
	s-0.4-1.8-1-2.4C8.8,5.7,7.9,5.3,7,5.3z M11.3,13.9H2.7c-0.7,0-1.3,0.3-1.8,0.8c-0.5,0.5-0.8,1.1-0.8,1.8c0,1.9,0.8,3.5,2.1,4.5
	c1.3,1,3,1.5,4.8,1.5s3.5-0.5,4.8-1.5c1.3-1,2.1-2.6,2.1-4.5c0-0.7-0.3-1.3-0.8-1.8C12.7,14.2,12,13.9,11.3,13.9z"/>
</svg>
