<svg width="19" height="13" viewBox="0 0 19 13" fill="none" xmlns="http://www.w3.org/2000/svg">
<path d="M18.4404 12.3483C17.2888 12.8204 16.1364 13 14.9845 13C11.328 13.0003 7.67172 11.191 4.01517 11.191C3.09814 11.191 2.1817 11.3048 1.26467 11.5892C1.16165 11.6211 1.05834 11.6362 0.957407 11.6362C0.446493 11.6362 0 11.2496 0 10.7131V1.5069C0 1.1404 0.214637 0.793058 0.559304 0.652032C1.71086 0.179621 2.86331 0 4.01517 0C7.67172 0 11.3283 1.80926 14.9848 1.80926C15.9019 1.80926 16.8183 1.69551 17.7353 1.41114C17.8383 1.37922 17.9417 1.36413 18.0426 1.36413C18.5535 1.36413 19 1.75065 19 2.28719V11.4931C18.9997 11.8599 18.7851 12.2069 18.4404 12.3483ZM1.42498 10.0918C2.02228 9.94558 2.64571 9.87217 3.28695 9.8327C3.11239 8.97987 2.34528 8.33712 1.42498 8.33712V10.0918ZM1.42498 1.82174V3.20821C2.44532 3.20821 3.27092 2.4169 3.31634 1.42652C2.64749 1.47904 2.02228 1.60962 1.42498 1.82174ZM9.49985 3.71429C8.18798 3.71429 7.12489 4.96176 7.12489 6.5C7.12489 8.03853 8.18828 9.28571 9.49985 9.28571C10.8114 9.28571 11.8748 8.03853 11.8748 6.5C11.8748 4.96118 10.8111 3.71429 9.49985 3.71429ZM17.5747 2.90817C17.0546 3.03556 16.5146 3.10694 15.9621 3.15308C16.1364 3.90987 16.7785 4.48442 17.5747 4.58308V2.90817ZM17.5747 9.75958C16.6577 9.87304 15.9461 10.6214 15.9179 11.5456C16.498 11.4827 17.0487 11.3648 17.5747 11.1783V9.75958Z" fill="white"/>
</svg>
