<?xml version="1.0" encoding="utf-8"?>
<!-- Generator: Adobe Illustrator 23.0.5, SVG Export Plug-In . SVG Version: 6.00 Build 0)  -->
<svg version="1.1" id="Capa_1" xmlns="http://www.w3.org/2000/svg" xmlns:xlink="http://www.w3.org/1999/xlink" x="0px" y="0px"
	 viewBox="0 0 54 57" style="enable-background:new 0 0 54 57;" xml:space="preserve">
<style type="text/css">
	.st0{fill:#F78A0E;}
</style>
<path class="st0" d="M28.5,56.4c10.4,0,19.7-5.7,24.6-14.8L31.3,28.5l21.8-13.1C48.2,6.3,38.9,0.6,28.5,0.6
	C13.1,0.6,0.6,13.1,0.6,28.5C0.6,43.9,13.1,56.4,28.5,56.4z M27.1,11.8c1.1,0,2.2,0.4,3,1.2c0.8,0.8,1.2,1.9,1.2,3
	c0,1.1-0.4,2.2-1.2,3c-0.8,0.8-1.9,1.2-3,1.2c-1.1,0-2.2-0.4-3-1.2c-0.8-0.8-1.2-1.9-1.2-3c0-1.1,0.4-2.2,1.2-3
	C24.9,12.2,26,11.7,27.1,11.8z"/>
</svg>
