<svg width="30" height="40" viewBox="0 0 30 40" fill="none" xmlns="http://www.w3.org/2000/svg">
<path d="M30.0004 15.0002C30.0004 18.9785 28.4201 22.7939 25.607 25.607C22.7939 28.4201 18.9785 30.0004 15.0002 30.0004C11.0219 30.0004 7.20655 28.4201 4.39346 25.607C1.58038 22.7939 0 18.9785 0 15.0002C0 11.0219 1.58038 7.20655 4.39346 4.39346C7.20655 1.58038 11.0219 0 15.0002 0C18.9785 0 22.7939 1.58038 25.607 4.39346C28.4201 7.20655 30.0004 11.0219 30.0004 15.0002ZM14.6177 7.75511L12.8252 11.6377C12.7938 11.7053 12.7456 11.7638 12.6852 11.8075C12.6248 11.8513 12.5542 11.8789 12.4802 11.8877L8.23512 12.3927C8.15209 12.4023 8.07355 12.4355 8.00881 12.4884C7.94406 12.5413 7.89582 12.6116 7.86978 12.691C7.84374 12.7704 7.841 12.8556 7.86189 12.9366C7.88277 13.0175 7.9264 13.0908 7.98762 13.1477L11.1277 16.0502C11.1828 16.1011 11.224 16.1653 11.2472 16.2367C11.2704 16.308 11.2749 16.3842 11.2602 16.4577L10.4252 20.6503C10.3502 21.0178 10.7402 21.3003 11.0677 21.1178L14.7977 19.0303C14.863 18.9937 14.9366 18.9745 15.0115 18.9745C15.0863 18.9745 15.1599 18.9937 15.2252 19.0303L18.9553 21.1178C19.2803 21.3003 19.6728 21.0178 19.6003 20.6503L18.7653 16.4577C18.7506 16.3842 18.755 16.308 18.7782 16.2367C18.8014 16.1653 18.8426 16.1011 18.8978 16.0502L22.0378 13.1477C22.099 13.0908 22.1427 13.0175 22.1636 12.9366C22.1844 12.8556 22.1817 12.7704 22.1557 12.691C22.1296 12.6116 22.0814 12.5413 22.0166 12.4884C21.9519 12.4355 21.8733 12.4023 21.7903 12.3927L17.5453 11.8877C17.4712 11.8789 17.4006 11.8513 17.3403 11.8075C17.2799 11.7638 17.2317 11.7053 17.2003 11.6377L15.4077 7.75511C15.3725 7.67978 15.3165 7.61606 15.2463 7.57141C15.1761 7.52677 15.0946 7.50306 15.0115 7.50306C14.9283 7.50306 14.8468 7.52677 14.7767 7.57141C14.7065 7.61606 14.6505 7.67978 14.6152 7.75511H14.6177Z" fill="url(#paint0_linear)"/>
<path d="M15.0001 32.5003C18.5766 32.5058 22.068 31.4104 25.0003 29.3628V38.7504C25.0001 38.9799 24.9369 39.2049 24.8173 39.4007C24.6978 39.5966 24.5267 39.7558 24.3228 39.8609C24.1188 39.966 23.8898 40.0129 23.661 39.9965C23.4321 39.9801 23.2122 39.901 23.0253 39.7679L15.0001 35.0004L6.97503 39.7679C6.78812 39.901 6.56818 39.9801 6.33932 39.9965C6.11046 40.0129 5.8815 39.966 5.67753 39.8609C5.47356 39.7558 5.30245 39.5966 5.18294 39.4007C5.06343 39.2049 5.00014 38.9799 5 38.7504V29.3628C7.93228 31.4104 11.4237 32.5058 15.0001 32.5003Z" fill="url(#paint1_linear)"/>
<defs>
<linearGradient id="paint0_linear" x1="15.0002" y1="0" x2="15.0002" y2="30.0004" gradientUnits="userSpaceOnUse">
<stop stop-color="#F78A0E"/>
<stop offset="1" stop-color="#FFF500"/>
</linearGradient>
<linearGradient id="paint1_linear" x1="15.0001" y1="29.3628" x2="15.0001" y2="39.9997" gradientUnits="userSpaceOnUse">
<stop stop-color="#F78A0E"/>
<stop offset="1" stop-color="#FFF500"/>
</linearGradient>
</defs>
</svg>
