<?xml version="1.0" encoding="utf-8"?>
<!-- Generator: Adobe Illustrator 23.0.5, SVG Export Plug-In . SVG Version: 6.00 Build 0)  -->
<svg version="1.1" id="Capa_1" xmlns="http://www.w3.org/2000/svg" xmlns:xlink="http://www.w3.org/1999/xlink" x="0px" y="0px"
	 viewBox="0 0 23 23" style="enable-background:new 0 0 23 23;" xml:space="preserve">
<style type="text/css">
	.st0{fill:none;stroke:#E9963C;stroke-width:2;stroke-linejoin:round;stroke-opacity:0.6;}
	.st1{fill:none;stroke:#F89938;stroke-miterlimit:10;stroke-opacity:0.6;}
	.st2{fill:none;stroke:#E9953C;stroke-width:2;stroke-linejoin:round;stroke-opacity:0.6;}
	.st3{fill:none;stroke:#E9963C;stroke-width:2;stroke-linecap:round;stroke-linejoin:round;stroke-opacity:0.6;}
</style>
<path class="st0" d="M13.6,13.6H22V22h-8.4V13.6z"/>
<path class="st1" d="M5.7,1.1l4.7,8.3H1L5.7,1.1z"/>
<path class="st2" d="M17.8,9.4c1.1,0,2.2-0.4,3-1.2c0.8-0.8,1.2-1.9,1.2-3s-0.4-2.2-1.2-3C20,1.4,18.9,1,17.8,1
	c-1.1,0-2.2,0.4-3,1.2c-0.8,0.8-1.2,1.9-1.2,3s0.4,2.2,1.2,3C15.6,9,16.7,9.4,17.8,9.4z"/>
<path class="st3" d="M1,13.6L9.4,22"/>
<path class="st3" d="M9.4,13.6L1,22"/>
</svg>
