<?xml version="1.0" encoding="utf-8"?>
<!-- Generator: Adobe Illustrator 23.0.5, SVG Export Plug-In . SVG Version: 6.00 Build 0)  -->
<svg version="1.1" id="Capa_1" xmlns="http://www.w3.org/2000/svg" xmlns:xlink="http://www.w3.org/1999/xlink" x="0px" y="0px"
	 viewBox="0 0 24 24" style="enable-background:new 0 0 24 24;" xml:space="preserve">
<style type="text/css">
	.st0{fill:#F78A0E;fill-opacity:0.6;}
</style>
<path class="st0" d="M20.7,12l1.1-1.9C22,9.9,22,9.6,22,9.3c-0.1-0.3-0.2-0.5-0.5-0.6l-1.9-1.1V5.4c0-0.3-0.1-0.5-0.3-0.7
	c-0.2-0.2-0.4-0.3-0.7-0.3h-2.2l-1.1-1.9c-0.1-0.2-0.4-0.4-0.6-0.5c-0.1,0-0.3,0-0.4,0c-0.1,0-0.3,0.1-0.4,0.1L12,3.3l-1.9-1.1
	C9.9,2,9.6,2,9.3,2C9.1,2.1,8.9,2.3,8.7,2.5L7.6,4.4H5.4c-0.3,0-0.5,0.1-0.7,0.3C4.5,4.9,4.4,5.2,4.4,5.4v2.2L2.5,8.7
	C2.4,8.8,2.3,8.9,2.2,9C2.1,9.1,2.1,9.2,2,9.3c0,0.1,0,0.3,0,0.4c0,0.1,0.1,0.3,0.1,0.4L3.3,12l-1.1,1.9C2,14.1,2,14.4,2,14.7
	c0.1,0.3,0.2,0.5,0.5,0.6l1.9,1.1v2.2c0,0.3,0.1,0.5,0.3,0.7c0.2,0.2,0.4,0.3,0.7,0.3h2.2l1.1,1.9c0.1,0.2,0.2,0.3,0.4,0.4
	S9.4,22,9.6,22c0.2,0,0.3,0,0.5-0.1l1.9-1.1l1.9,1.1c0.2,0.1,0.5,0.2,0.8,0.1c0.3-0.1,0.5-0.2,0.6-0.5l1.1-1.9h2.2
	c0.3,0,0.5-0.1,0.7-0.3c0.2-0.2,0.3-0.4,0.3-0.7v-2.2l1.9-1.1c0.1-0.1,0.2-0.2,0.3-0.3c0.1-0.1,0.1-0.2,0.2-0.4c0-0.1,0-0.3,0-0.4
	c0-0.1-0.1-0.3-0.1-0.4L20.7,12z M9.5,7c0.4,0,0.8,0.2,1.1,0.4C10.8,7.7,11,8.1,11,8.5c0,0.4-0.2,0.8-0.4,1.1
	C10.3,9.8,9.9,10,9.5,10c-0.4,0-0.8-0.2-1.1-0.4C8.2,9.3,8,8.9,8,8.5c0-0.4,0.2-0.8,0.4-1.1C8.7,7.1,9.1,7,9.5,7z M9.8,16.6
	l-1.6-1.2l6-8l1.6,1.2L9.8,16.6z M14.5,17c-0.2,0-0.4,0-0.6-0.1c-0.2-0.1-0.3-0.2-0.5-0.3c-0.1-0.1-0.2-0.3-0.3-0.5
	C13,15.9,13,15.7,13,15.5c0-0.2,0-0.4,0.1-0.6c0.1-0.2,0.2-0.3,0.3-0.5c0.1-0.1,0.3-0.2,0.5-0.3c0.2-0.1,0.4-0.1,0.6-0.1
	c0.4,0,0.8,0.2,1.1,0.4c0.3,0.3,0.4,0.7,0.4,1.1c0,0.4-0.2,0.8-0.4,1.1S14.9,17,14.5,17z"/>
</svg>
