<?xml version="1.0" encoding="utf-8"?>
<!-- Generator: Adobe Illustrator 23.0.5, SVG Export Plug-In . SVG Version: 6.00 Build 0)  -->
<svg version="1.1" id="Capa_1" xmlns="http://www.w3.org/2000/svg" xmlns:xlink="http://www.w3.org/1999/xlink" x="0px" y="0px"
	 viewBox="0 0 14 24" style="enable-background:new 0 0 14 24;" xml:space="preserve">
<style type="text/css">
	.st0{fill:#F78A0E;fill-opacity:0.6;}
</style>
<path class="st0" d="M0,5.9C0,6,0,6.1,0,6.1c0,0.1,0.1,0.1,0.1,0.2c0.1,0.1,0.1,0.1,0.2,0.1c0.1,0,0.2,0,0.2,0h2.1
	c0.4,0,0.6-0.3,0.7-0.6C3.7,4.2,4.8,3,6.9,3c1.8,0,3.4,0.9,3.4,3c0,1.6-1,2.4-2.5,3.5c-1.7,1.3-3.1,2.7-3,5.1l0,0.6
	c0,0.4,0.3,0.6,0.6,0.6h2.1c0.4,0,0.6-0.3,0.6-0.6v-0.3c0-1.9,0.7-2.4,2.6-3.8C12.4,9.9,14,8.6,14,5.8C14,1.9,10.7,0,7.1,0
	C3.8,0,0.2,1.5,0,5.9L0,5.9z M4,20.8c0,1.4,1.1,2.4,2.6,2.4c1.6,0,2.7-1,2.7-2.4c0-1.4-1.1-2.4-2.7-2.4C5.1,18.4,4,19.4,4,20.8z"/>
</svg>
