<svg width="29" height="21" viewBox="0 0 29 21" fill="none" xmlns="http://www.w3.org/2000/svg">
<path d="M28.1463 19.1161C26.3886 19.8469 24.6296 20.125 22.8715 20.125C17.2903 20.1254 11.7097 17.3246 6.12852 17.3246C4.72881 17.3246 3.33002 17.5007 1.93031 17.9409C1.77308 17.9903 1.61539 18.0137 1.46133 18.0137C0.6815 18.0137 0 17.4153 0 16.5847V2.33279C0 1.76543 0.327609 1.22771 0.853687 1.00939C2.61136 0.278067 4.37039 0 6.12852 0C11.7097 0 17.2908 2.80088 22.8719 2.80088C24.2716 2.80088 25.6704 2.62478 27.0701 2.18455C27.2274 2.13514 27.3851 2.11178 27.5391 2.11178C28.319 2.11178 29.0005 2.71014 29.0005 3.54074V17.7922C29 18.36 28.6724 18.8973 28.1463 19.1161ZM2.175 15.6229C3.08669 15.3965 4.03825 15.2829 5.017 15.2218C4.75056 13.9015 3.57969 12.9065 2.175 12.9065V15.6229ZM2.175 2.8202V4.96656C3.73239 4.96656 4.99253 3.74154 5.06186 2.20836C4.04097 2.28967 3.08669 2.49182 2.175 2.8202ZM14.5 5.75C12.4976 5.75 10.875 7.68119 10.875 10.0625C10.875 12.4443 12.4981 14.375 14.5 14.375C16.5019 14.375 18.125 12.4443 18.125 10.0625C18.125 7.68029 16.5015 5.75 14.5 5.75ZM26.825 4.50207C26.0311 4.69928 25.2069 4.80978 24.3636 4.88121C24.6296 6.05277 25.6097 6.94223 26.825 7.09496V4.50207ZM26.825 15.1086C25.4253 15.2842 24.3392 16.4428 24.2961 17.8735C25.1815 17.776 26.0221 17.5937 26.825 17.3048V15.1086Z" fill="#EBEBF5" fill-opacity="0.6"/>
</svg>
