<?xml version="1.0" encoding="utf-8"?>
<!-- Generator: Adobe Illustrator 23.0.5, SVG Export Plug-In . SVG Version: 6.00 Build 0)  -->
<svg version="1.1" id="Capa_1" xmlns="http://www.w3.org/2000/svg" xmlns:xlink="http://www.w3.org/1999/xlink" x="0px" y="0px"
	 viewBox="0 0 20 23" style="enable-background:new 0 0 20 23;" xml:space="preserve">
<style type="text/css">
	.st0{fill:#F78A0E;fill-opacity:0.6;}
</style>
<path class="st0" d="M4.4,11h8.9v2.2H4.4V11z M6.6,19.7H2.2V2.2H10v5.5h5.5v3.4l2.2-2.2V6.6L11.1,0H2.2C1.6,0,1.1,0.2,0.6,0.6
	C0.2,1.1,0,1.6,0,2.2v17.5c0,0.6,0.2,1.1,0.6,1.5c0.4,0.4,1,0.6,1.6,0.6h4.4V19.7z M4.4,17.5H9l1-1v-1.2H4.4V17.5z M18,12
	c0.1,0,0.3,0.1,0.4,0.2l1.4,1.4c0.2,0.2,0.2,0.7,0,0.9l-1.1,1.1l-2.3-2.3l1.1-1.1C17.6,12.2,17.7,12,18,12z M18,16.3L11.2,23H8.9
	v-2.3l6.8-6.7L18,16.3z"/>
</svg>
