<?xml version="1.0" encoding="utf-8"?>
<!-- Generator: Adobe Illustrator 23.0.5, SVG Export Plug-In . SVG Version: 6.00 Build 0)  -->
<svg version="1.1" id="Capa_1" xmlns="http://www.w3.org/2000/svg" xmlns:xlink="http://www.w3.org/1999/xlink" x="0px" y="0px"
	 viewBox="0 0 20 20" style="enable-background:new 0 0 20 20;" xml:space="preserve">
<style type="text/css">
	.st0{fill:#F78A0E;fill-opacity:0.6;}
</style>
<path class="st0" d="M10,0C4.5,0,0,4.5,0,10c0,5.5,4.5,10,10,10c5.5,0,10-4.5,10-10C20,4.5,15.5,0,10,0z M10,15.8
	c-0.5,0-0.9-0.4-0.9-0.9c0-0.5,0.4-0.9,0.9-0.9s0.9,0.4,0.9,0.9C10.9,15.4,10.5,15.8,10,15.8z M11.4,10.9c-0.2,0.1-0.4,0.2-0.5,0.4
	c-0.1,0.2-0.2,0.4-0.2,0.6v0.5c0,0.1-0.1,0.2-0.2,0.2H9.5c-0.1,0-0.2-0.1-0.2-0.2v-0.5c0-0.5,0.1-1,0.4-1.4c0.3-0.4,0.7-0.7,1.2-0.9
	c0.8-0.3,1.3-0.9,1.3-1.6c0-1-1-1.8-2.1-1.8S7.9,7,7.9,7.9v0.2c0,0.1-0.1,0.2-0.2,0.2H6.6c-0.1,0-0.2-0.1-0.2-0.2V7.9
	c0-0.9,0.4-1.7,1.1-2.3C8.2,5.1,9.1,4.7,10,4.7s1.8,0.3,2.5,0.9c0.7,0.6,1.1,1.4,1.1,2.3C13.6,9.2,12.7,10.4,11.4,10.9z"/>
</svg>
