<svg width="20" height="22" viewBox="0 0 20 22" fill="none" xmlns="http://www.w3.org/2000/svg">
<path d="M10.0121 13.8455C9.31132 13.8455 8.65507 13.5736 8.15819 13.0768C7.66366 12.5799 7.38944 11.9236 7.38944 11.2229C7.38944 10.5221 7.66366 9.86582 8.15819 9.36894C8.65507 8.87441 9.31132 8.60019 10.0121 8.60019C10.7129 8.60019 11.3691 8.87441 11.866 9.36894C12.3605 9.86582 12.6348 10.5221 12.6348 11.2229C12.6348 11.9236 12.3605 12.5799 11.866 13.0768C11.6233 13.3213 11.3345 13.5152 11.0162 13.6472C10.6979 13.7791 10.3566 13.8466 10.0121 13.8455ZM19.6754 8.32598L18.1426 9.63613C18.2152 10.0814 18.2527 10.5361 18.2527 10.9885C18.2527 11.4408 18.2152 11.8979 18.1426 12.3408L19.6754 13.651C19.7912 13.7501 19.874 13.8821 19.913 14.0295C19.9519 14.1769 19.9451 14.3326 19.8933 14.476L19.8723 14.5369C19.4504 15.7165 18.8183 16.81 18.0066 17.7643L17.9644 17.8135C17.8659 17.9294 17.7345 18.0127 17.5877 18.0524C17.4408 18.0922 17.2853 18.0865 17.1418 18.0361L15.2387 17.3588C14.5355 17.9354 13.7527 18.39 12.9043 18.7064L12.5363 20.6963C12.5086 20.8462 12.4358 20.9841 12.3278 21.0917C12.2198 21.1993 12.0816 21.2715 11.9316 21.2986L11.8683 21.3104C10.6496 21.5307 9.36522 21.5307 8.14647 21.3104L8.08319 21.2986C7.93318 21.2715 7.795 21.1993 7.68699 21.0917C7.57898 20.9841 7.50627 20.8462 7.4785 20.6963L7.10819 18.6971C6.26779 18.3781 5.4849 17.9246 4.79022 17.3541L2.87303 18.0361C2.72952 18.0869 2.57395 18.0928 2.42701 18.053C2.28006 18.0132 2.1487 17.9297 2.05038 17.8135L2.00819 17.7643C1.19794 16.809 0.566013 15.7158 0.142565 14.5369L0.121471 14.476C0.0160025 14.183 0.102721 13.8549 0.33944 13.651L1.891 12.3268C1.81835 11.8861 1.78319 11.4361 1.78319 10.9908C1.78319 10.5408 1.81835 10.0908 1.891 9.65488L0.344128 8.33066C0.228336 8.23154 0.145463 8.09951 0.106527 7.95214C0.067592 7.80477 0.0744392 7.64905 0.126159 7.50566L0.147253 7.44473C0.571471 6.26582 1.19725 5.17597 2.01288 4.21738L2.05507 4.16816C2.15363 4.05227 2.285 3.96896 2.43185 3.92921C2.57871 3.88946 2.73416 3.89515 2.87772 3.94551L4.79491 4.62754C5.49335 4.05332 6.27147 3.59863 7.11288 3.28457L7.48319 1.28535C7.51095 1.13545 7.58367 0.997543 7.69168 0.889954C7.79968 0.782364 7.93787 0.710186 8.08788 0.683006L8.15116 0.671288C9.3819 0.449789 10.6423 0.449789 11.873 0.671288L11.9363 0.683006C12.0863 0.710186 12.2245 0.782364 12.3325 0.889954C12.4405 0.997543 12.5132 1.13545 12.541 1.28535L12.909 3.27519C13.7574 3.59394 14.5402 4.04629 15.2433 4.62285L17.1465 3.94551C17.29 3.89474 17.4456 3.88886 17.5925 3.92863C17.7394 3.9684 17.8708 4.05195 17.9691 4.16816L18.0113 4.21738C18.8269 5.18066 19.4527 6.26582 19.8769 7.44473L19.898 7.50566C19.9988 7.79629 19.9121 8.12207 19.6754 8.32598ZM10.0121 7.10254C7.73632 7.10254 5.89178 8.94707 5.89178 11.2229C5.89178 13.4986 7.73632 15.3432 10.0121 15.3432C12.2879 15.3432 14.1324 13.4986 14.1324 11.2229C14.1324 8.94707 12.2879 7.10254 10.0121 7.10254Z" fill="#EBEBF5" fill-opacity="0.6"/>
</svg>
