<svg width="24" height="24" viewBox="0 0 24 24" fill="none" xmlns="http://www.w3.org/2000/svg">
<path fill-rule="evenodd" clip-rule="evenodd" d="M13.0048 17.2501C11.2012 17.2501 9.36897 16.1795 8.29962 14.7625C3.16925 14.7625 3.01416 22.0916 3.01416 22.0916H22.9941C22.9941 22.0916 23.3968 14.73 17.6273 14.73C16.5592 16.1645 14.8083 17.2501 13.0048 17.2501Z" fill="#EBEBF5" fill-opacity="0.6"/>
<path fill-rule="evenodd" clip-rule="evenodd" d="M17.302 8.4639C17.302 10.5726 15.3771 14.6048 13.0008 14.6048C10.6282 14.6048 8.70215 10.5713 8.70215 8.4639C8.70215 6.35647 10.627 4.64551 13.0008 4.64551C15.3771 4.64676 17.302 6.35772 17.302 8.4639Z" fill="#EBEBF5" fill-opacity="0.6"/>
<path fill-rule="evenodd" clip-rule="evenodd" d="M20.4875 6.37784C20.4875 5.89361 19.8238 5.50286 19.0004 5.49979V4.50221C19.0004 4.35357 19.0562 0.873535 13.0051 0.873535C6.95712 0.873535 7.01293 4.35357 7.01293 4.50221V5.53504C6.99785 5.53504 6.98578 5.53044 6.97221 5.53044C6.15324 5.53044 5.49414 5.91507 5.49414 6.39164V10.6118C5.49414 11.0853 6.15475 11.4715 6.97221 11.4715C7.78967 11.4715 8.45329 11.0853 8.45329 10.6118V6.39164C8.45329 6.32574 8.41257 6.26598 8.38844 6.20469V5.05387C8.38844 4.94813 7.95407 2.32163 13.0051 2.32163C18.0577 2.32163 17.5328 4.94813 17.5328 5.05387V6.26598C17.5238 6.30429 17.4951 6.338 17.4951 6.37784V10.6946C17.4951 11.1803 18.1633 11.5741 18.9913 11.5741C19.0094 11.5741 19.023 11.568 19.0411 11.568V13.1448H17.557V14.6312H20.5025L20.4875 6.37784Z" fill="#EBEBF5" fill-opacity="0.6"/>
</svg>
