<svg width="18" height="21" viewBox="0 0 18 21" fill="none" xmlns="http://www.w3.org/2000/svg">
  <path
    d="M17.607 14.2444C17.0507 13.2866 16.3874 11.4692 16.3874 8.25V7.58475C16.3874 3.43294 13.0567 0.0305626 8.96273 0.000187576L8.90555 0C6.91898 0.00258421 5.0148 0.794204 3.61189 2.20072C2.20898 3.60723 1.42225 5.51344 1.42476 7.5V8.25C1.42476 11.469 0.761108 13.2863 0.204515 14.244C0.071575 14.4718 0.00103648 14.7305 1.13355e-05 14.9943C-0.00101381 15.258 0.0675107 15.5173 0.198676 15.7461C0.329841 15.9749 0.519009 16.165 0.747107 16.2974C0.975206 16.4298 1.23417 16.4996 1.49789 16.5H5.15573C5.15573 17.4946 5.55082 18.4484 6.25408 19.1516C6.95734 19.8549 7.91117 20.25 8.90573 20.25C9.9003 20.25 10.8541 19.8549 11.5574 19.1516C12.2606 18.4484 12.6557 17.4946 12.6557 16.5H16.3136C16.5773 16.4997 16.8362 16.4298 17.0643 16.2975C17.2923 16.1651 17.4815 15.975 17.6127 15.7463C17.7438 15.5175 17.8124 15.2583 17.8114 14.9946C17.8104 14.7309 17.7399 14.4721 17.607 14.2444ZM8.90573 18.75C8.3092 18.7493 7.7373 18.5121 7.31548 18.0903C6.89367 17.6684 6.6564 17.0965 6.65573 16.5H11.1557C11.1551 17.0965 10.9178 17.6684 10.496 18.0903C10.0742 18.5121 9.50226 18.7493 8.90573 18.75Z"
    fill="currentColor" />
</svg>