<?xml version="1.0" standalone="no"?>
<!DOCTYPE svg PUBLIC "-//W3C//DTD SVG 20010904//EN" "http://www.w3.org/TR/2001/REC-SVG-20010904/DTD/svg10.dtd">
<svg version="1.0" xmlns="http://www.w3.org/2000/svg" width="470.000000pt" height="636.000000pt"
  viewBox="0 0 470.000000 636.000000" preserveAspectRatio="xMidYMid meet">

  <g transform="translate(0.000000,636.000000) scale(0.100000,-0.100000)" fill="currentColor" stroke="none">
    <path d="M735 6354 c-202 -44 -310 -96 -441 -210 -137 -120 -242 -307 -274
-488 -7 -40 -10 -933 -10 -2701 0 -2315 2 -2648 15 -2692 18 -60 78 -132 141
-169 54 -32 150 -42 221 -25 30 8 191 98 438 246 215 128 406 241 426 250 35
17 37 16 85 -9 27 -14 123 -70 214 -125 91 -55 206 -123 255 -152 50 -29 101
-60 115 -70 116 -78 308 -182 363 -195 121 -30 95 -43 915 449 120 72 193 110
212 110 18 0 71 -25 137 -65 59 -36 187 -111 283 -168 96 -56 191 -113 210
-125 76 -50 229 -133 265 -145 56 -18 161 -9 219 20 62 32 126 104 148 167 17
48 18 202 18 2699 0 2607 -1 2650 -20 2739 -40 178 -154 363 -293 475 -72 58
-212 131 -312 162 l-70 22 -1620 2 c-891 1 -1629 0 -1640 -2z m1686 -1139 c17
-10 43 -29 57 -43 45 -49 55 -88 61 -246 l6 -150 59 -23 c189 -76 382 -281
410 -436 16 -87 -41 -186 -126 -221 -109 -46 -219 1 -278 118 -28 54 -91 115
-148 143 -74 36 -182 39 -253 6 -63 -29 -125 -87 -157 -147 -23 -44 -27 -63
-27 -141 0 -78 4 -97 27 -140 31 -61 104 -130 162 -156 23 -10 85 -23 137 -29
122 -14 193 -32 284 -74 258 -119 435 -388 435 -663 0 -292 -192 -575 -459
-677 l-69 -27 -4 -142 c-5 -150 -16 -197 -61 -245 -77 -83 -227 -83 -304 0
-45 47 -56 95 -61 243 l-4 140 -68 28 c-142 58 -270 171 -350 307 -77 132 -76
227 4 306 58 59 127 76 211 53 51 -14 97 -58 141 -136 66 -119 171 -179 300
-171 86 6 147 33 204 91 66 69 85 117 85 222 0 78 -4 97 -28 147 -32 64 -90
122 -153 149 -23 11 -98 26 -165 35 -226 27 -364 95 -501 243 -226 244 -259
606 -80 899 74 122 205 231 340 283 l62 24 0 111 c0 61 5 135 10 165 16 85 67
144 148 170 37 12 114 3 153 -16z" />
  </g>
</svg>