<svg version="1.0" xmlns="http://www.w3.org/2000/svg" width="512.000000pt" height="512.000000pt"
  viewBox="0 0 512.000000 512.000000" preserveAspectRatio="xMidYMid meet">

  <g transform="translate(0.000000,512.000000) scale(0.100000,-0.100000)" fill="currentColor" stroke="none">
    <path d="M735 5106 c-37 -16 -70 -52 -84 -89 -15 -38 -15 -4416 -1 -4467 7
-27 70 -95 262 -287 342 -340 310 -336 583 -63 l179 180 186 -184 c265 -263
255 -263 523 2 l177 176 178 -176 c267 -265 257 -265 522 -2 l186 184 179
-180 c273 -273 241 -277 583 63 199 198 255 260 262 288 7 24 9 830 8 2252
l-3 2216 -21 27 c-11 15 -33 37 -48 48 l-27 21 -1807 2 c-1491 2 -1812 0
-1837 -11z m1904 -815 c56 -40 66 -65 69 -180 l4 -109 109 -4 c121 -5 143 -14
187 -78 42 -62 21 -154 -45 -197 -24 -16 -59 -19 -293 -23 l-266 -5 -43 -28
c-46 -31 -81 -91 -81 -142 0 -37 30 -104 58 -128 41 -37 91 -46 247 -47 216 0
308 -31 415 -139 184 -184 182 -484 -6 -666 -68 -67 -145 -106 -256 -129 l-28
-6 0 -101 c0 -115 -14 -156 -64 -192 -43 -31 -129 -31 -172 0 -50 36 -64 77
-64 192 l0 101 -101 0 c-115 0 -156 14 -192 64 -31 43 -31 129 0 172 43 60 64
64 337 64 271 0 292 4 338 58 74 88 54 207 -43 261 -32 19 -54 21 -180 21 -86
0 -171 6 -212 15 -190 40 -339 199 -370 394 -36 236 130 475 365 523 l58 12 0
98 c0 107 12 148 52 186 48 44 127 50 177 13z m796 -2724 c45 -28 68 -65 73
-117 5 -52 -11 -90 -53 -130 l-27 -25 -869 0 -869 0 -37 38 c-36 35 -38 41
-38 100 0 84 34 129 110 148 17 4 401 7 855 6 781 -2 827 -3 855 -20z" />
  </g>
</svg>