<svg height="1em" viewBox="0 0 19 19" fill="none" xmlns="http://www.w3.org/2000/svg">
  <path
    d="M9.30774 18.9997C4.71613 18.9959 0.495033 15.1637 0.0618366 10.5795C-0.403017 6.67517 1.79075 2.59428 5.3713 0.93585C8.69646 -0.691948 12.9644 -0.176809 15.7222 2.32963C18.5282 4.76162 19.7543 8.90697 18.5217 12.4435C17.3496 16.0516 13.8904 18.8138 10.0806 18.981C9.82331 18.9979 9.56547 19.001 9.30774 18.9997ZM9.49582 16.0227C12.8773 16.1213 15.9774 13.134 16.0171 9.74575C16.1633 6.64606 13.8383 3.60225 10.7543 3.08257C7.76995 2.48379 4.46004 4.21132 3.41545 7.11327C2.29089 9.98298 3.43819 13.612 6.17545 15.1182C7.17627 15.7068 8.33494 16.0242 9.49582 16.0227ZM7.1475 13.6926L5.30892 11.8511L7.67484 9.4813L5.35166 7.15436L7.16105 5.34204L9.48428 7.66899L11.8516 5.29787L13.6902 7.13941L11.3228 9.51052L13.6461 11.8376L11.8367 13.6499C11.0623 12.8742 10.2879 12.0985 9.51345 11.3229L7.1475 13.6926V13.6926Z"
    fill="currentColor" />
</svg>