<svg version="1.0" xmlns="http://www.w3.org/2000/svg" width="512.000000pt" height="512.000000pt"
  viewBox="0 0 512.000000 512.000000" preserveAspectRatio="xMidYMid meet">

  <g transform="translate(0.000000,512.000000) scale(0.100000,-0.100000)" fill="currentColor" stroke="none">
    <path d="M2191 4616 l-365 -183 85 -46 c386 -210 2015 -1077 2024 -1077 5 0
188 90 405 199 l394 199 -474 237 c-261 130 -750 376 -1086 546 -336 170 -613
309 -615 308 -2 0 -168 -82 -368 -183z" />
    <path d="M786 3909 c-219 -110 -397 -202 -395 -204 2 -1 491 -248 1085 -547
l1081 -545 369 185 c250 125 363 187 353 192 -32 18 -2093 1120 -2094 1119 0
0 -179 -90 -399 -200z" />
    <path d="M320 2508 l1 -1093 1089 -548 1090 -548 0 1095 0 1094 -1085 546
c-597 300 -1088 546 -1090 546 -3 0 -5 -492 -5 -1092z" />
    <path d="M4395 3402 l-390 -197 -3 -412 -2 -413 -162 0 -163 0 -157 -157 -158
-158 0 408 0 407 -370 -185 -370 -185 0 -1095 0 -1095 1090 548 1089 547 1
1093 c0 600 -3 1092 -7 1091 -5 0 -183 -89 -398 -197z" />
  </g>
</svg>