<svg width="24" height="24" viewBox="0 0 24 24" fill="none" xmlns="http://www.w3.org/2000/svg">
  <path
    d="M15.4042 0.63179C14.9471 0.213261 14.3459 -0.012867 13.7259 0.00056597C13.1059 0.013999 12.5151 0.265956 12.0766 0.703891L0.704889 12.0614C0.481414 12.2845 0.304141 12.5495 0.183196 12.8411C0.0622501 13.1327 0 13.4452 0 13.7608C0 14.0765 0.0622501 14.389 0.183196 14.6806C0.304141 14.9722 0.481414 15.2372 0.704889 15.4603L2.29652 17.05C2.89295 17.6457 3.75064 17.5032 4.25597 17.165C4.61961 16.9236 5.05569 16.8154 5.49017 16.8586C5.92464 16.9019 6.33073 17.094 6.63948 17.4024C6.94823 17.7107 7.1406 18.1163 7.18392 18.5503C7.22725 18.9842 7.11886 19.4197 6.87717 19.7829C6.542 20.2893 6.39762 21.1459 6.99405 21.7416L8.54958 23.2952C8.77733 23.5229 9.04856 23.7026 9.34717 23.8236C9.64578 23.9446 9.96568 24.0045 10.2879 23.9997C10.6101 23.9949 10.9281 23.9255 11.223 23.7957C11.5178 23.6658 11.7836 23.4781 12.0044 23.2437L23.3452 11.2065C23.5638 10.9747 23.7341 10.7019 23.8462 10.4039C23.9583 10.1059 24.0101 9.7886 23.9984 9.47045C23.9867 9.1523 23.9119 8.83963 23.7782 8.55061C23.6445 8.2616 23.4547 8.00198 23.2197 7.78685L21.6968 6.39292C21.5293 6.24323 21.3291 6.13458 21.1122 6.07558C20.8953 6.01658 20.6677 6.00886 20.4472 6.05302C20.0571 6.12169 19.6875 6.3294 19.4194 6.62124C19.2516 6.80407 19.0493 6.95209 18.8242 7.05686C18.5991 7.16163 18.3556 7.22109 18.1075 7.23185C17.8594 7.24261 17.6116 7.20446 17.3782 7.11957C17.1449 7.03468 16.9305 6.90472 16.7475 6.73711C16.3778 6.39861 16.1579 5.92728 16.1361 5.42683C16.1253 5.17903 16.1635 4.93154 16.2485 4.69849C16.3335 4.46544 16.4636 4.25138 16.6315 4.06855C16.9013 3.77844 17.0749 3.39219 17.111 2.99907C17.1361 2.776 17.1088 2.55015 17.0312 2.33946C16.9537 2.12878 16.828 1.93906 16.6641 1.78539L15.4042 0.63179Z"
    fill="currentColor" />
</svg>