<svg height="1em" viewBox="0 0 20 20" fill="none" xmlns="http://www.w3.org/2000/svg">
  <path
    d="M17.3334 0.833984H2.67586C1.66753 0.833984 0.842529 1.65898 0.842529 2.66732V19.1673L4.50003 15.5007H17.3334C18.3417 15.5007 19.1667 14.6757 19.1667 13.6673V2.66732C19.1667 1.65898 18.3417 0.833984 17.3334 0.833984ZM10.9167 11.834H9.08336V10.0007H10.9167V11.834ZM10.9167 7.25065C10.9167 7.75482 10.5042 8.16732 10 8.16732C9.49586 8.16732 9.08336 7.75482 9.08336 7.25065V5.41732C9.08336 4.91315 9.49586 4.50065 10 4.50065C10.5042 4.50065 10.9167 4.91315 10.9167 5.41732V7.25065Z"
    fill="currentColor" />
</svg>