<svg version="1.0" xmlns="http://www.w3.org/2000/svg" width="512.000000pt" height="512.000000pt"
  viewBox="0 0 512.000000 512.000000" preserveAspectRatio="xMidYMid meet">

  <g transform="translate(0.000000,512.000000) scale(0.100000,-0.100000)" fill="currentColor" stroke="none">
    <path d="M2075 4612 c-399 -225 -1644 -949 -1657 -964 -17 -19 -18 -82 -18
-1008 0 -926 1 -989 18 -1008 26 -30 1699 -992 1726 -992 12 0 119 56 237 124
222 129 242 146 231 201 -2 13 -13 32 -24 41 -35 33 -75 21 -223 -65 l-140
-81 -3 862 c-1 493 2 866 7 871 5 5 343 202 752 438 l744 429 5 -355 c5 -319
7 -356 22 -372 25 -25 83 -22 111 5 22 22 22 23 25 444 2 284 -1 430 -8 448
-8 20 -192 131 -858 515 -466 269 -858 491 -872 492 -14 2 -47 -9 -75 -25z
m548 -423 l28 -17 -58 -35 c-269 -162 -1437 -828 -1447 -825 -19 4 -496 281
-496 288 0 3 336 199 747 436 l746 431 226 -130 c124 -72 239 -138 254 -148z
m326 -189 c21 -14 -10 -33 -727 -447 l-749 -433 -77 43 c-41 23 -75 45 -73 49
1 4 337 201 747 437 l744 430 56 -32 c31 -18 67 -39 79 -47z m442 -252 c137
-79 248 -145 248 -148 1 -8 -1491 -865 -1501 -862 -20 6 -498 285 -497 291 0
7 1480 860 1493 861 5 0 120 -64 257 -142z m-2538 -456 l217 -125 0 -268 c0
-264 0 -268 23 -292 29 -32 358 -217 384 -217 11 0 31 9 44 19 24 19 24 22 29
249 l5 229 253 -146 252 -146 0 -868 0 -869 -32 20 c-30 18 -1108 641 -1360
785 l-108 62 0 868 0 869 38 -22 c20 -12 135 -79 255 -148z m462 -266 l70 -42
3 -182 c1 -100 0 -182 -4 -182 -4 0 -40 19 -80 42 l-74 42 0 183 c0 101 3 183
8 182 4 0 39 -19 77 -43z" />
    <path d="M3542 2550 c-145 -21 -335 -93 -449 -171 -77 -54 -207 -184 -263
-265 -217 -313 -248 -718 -83 -1049 53 -105 100 -172 182 -258 321 -337 787
-419 1206 -213 278 137 472 374 553 675 22 84 25 115 25 251 0 134 -3 168 -26
252 -49 184 -134 335 -266 471 -94 97 -173 154 -293 212 -170 82 -406 120
-586 95z m359 -180 c482 -123 773 -653 614 -1119 -138 -408 -569 -669 -983
-597 -163 28 -320 105 -444 215 -66 59 -161 187 -202 275 -62 129 -81 221 -80
381 1 122 4 151 27 228 94 310 307 524 607 611 140 41 315 43 461 6z" />
    <path d="M3625 2215 l-25 -24 0 -351 0 -351 25 -24 24 -25 351 0 351 0 24 25
c33 32 33 78 0 110 l-24 25 -296 0 -295 0 0 295 0 296 -25 24 c-15 16 -36 25
-55 25 -19 0 -40 -9 -55 -25z" />
  </g>
</svg>