<svg width="24" height="22" viewBox="0 0 24 22" fill="none" xmlns="http://www.w3.org/2000/svg">
  <path
    d="M14.7601 0C14.304 0 13.8665 0.181214 13.5439 0.503776C13.2213 0.826339 13.0401 1.26383 13.0401 1.72V5.16C13.0401 5.61617 13.2213 6.05366 13.5439 6.37622C13.8665 6.69879 14.304 6.88 14.7601 6.88V9.46L17.8561 6.88H21.6401C22.0963 6.88 22.5338 6.69879 22.8564 6.37622C23.1789 6.05366 23.3601 5.61617 23.3601 5.16V1.72C23.3601 1.26383 23.1789 0.826339 22.8564 0.503776C22.5338 0.181214 22.0963 0 21.6401 0H14.7601ZM7.02014 4.3C6.10779 4.3 5.23281 4.66243 4.58769 5.30755C3.94256 5.95268 3.58014 6.82766 3.58014 7.74C3.58014 8.65234 3.94256 9.52732 4.58769 10.1724C5.23281 10.8176 6.10779 11.18 7.02014 11.18C7.93248 11.18 8.80746 10.8176 9.45258 10.1724C10.0977 9.52732 10.4601 8.65234 10.4601 7.74C10.4601 6.82766 10.0977 5.95268 9.45258 5.30755C8.80746 4.66243 7.93248 4.3 7.02014 4.3ZM11.3201 12.9H2.72014C2.03588 12.9 1.37965 13.1718 0.895801 13.6557C0.411957 14.1395 0.140137 14.7957 0.140137 15.48C0.140137 17.3995 0.929616 18.9372 2.22478 19.9778C3.4993 21.0012 5.20898 21.5 7.02014 21.5C8.8313 21.5 10.541 21.0012 11.8155 19.9778C13.1089 18.9372 13.9001 17.3995 13.9001 15.48C13.9001 14.7957 13.6283 14.1395 13.1445 13.6557C12.6606 13.1718 12.0044 12.9 11.3201 12.9Z"
    fill="currentColor" />
</svg>