<svg xmlns="http://www.w3.org/2000/svg" xmlns:xlink="http://www.w3.org/1999/xlink" version="1.1" width="11" height="12"
  viewBox="0 0 11 12">
  <path
    d="M5.84826 12C8.02323 12 9.97889 10.779 11 8.8116L6.43309 6L11 3.1884C9.97889 1.221 8.02323 0 5.84826 0C2.62353 0 0 2.6916 0 6C0 9.3084 2.62353 12 5.84826 12ZM5.55585 2.4C5.78859 2.40008 6.01176 2.49501 6.17627 2.6639C6.34079 2.8328 6.43317 3.06183 6.43309 3.3006C6.43301 3.53937 6.34048 3.76834 6.17586 3.93712C6.01124 4.1059 5.788 4.20068 5.55527 4.2006C5.32253 4.20052 5.09936 4.10559 4.93484 3.9367C4.77033 3.7678 4.67795 3.53877 4.67803 3.3C4.6781 3.06123 4.77063 2.83226 4.93526 2.66348C5.09988 2.4947 5.32311 2.39992 5.55585 2.4Z" />
</svg>