<svg version="1.0" xmlns="http://www.w3.org/2000/svg" width="512.000000pt" height="512.000000pt"
  viewBox="0 0 512.000000 512.000000" preserveAspectRatio="xMidYMid meet">

  <g transform="translate(0.000000,512.000000) scale(0.100000,-0.100000)" fill="currentColor" stroke="none">
    <path d="M272 4555 c-59 -18 -107 -52 -140 -99 l-27 -39 -3 -546 -2 -546 22
-45 c26 -51 91 -104 146 -120 20 -5 139 -10 265 -10 l227 0 0 305 0 305 -94 0
c-86 0 -97 2 -124 25 -38 32 -46 65 -28 109 30 71 -141 66 2046 66 2187 0
2016 5 2046 -66 18 -44 10 -77 -28 -109 -27 -23 -38 -25 -124 -25 l-94 0 0
-305 0 -305 228 0 c125 0 244 5 264 10 55 16 120 69 146 120 l22 45 -2 546 -3
546 -27 39 c-34 48 -81 81 -144 100 -69 20 -4506 20 -4572 -1z" />
    <path d="M2435 3760 c-320 -51 -583 -271 -684 -575 -107 -322 -24 -657 221
-891 282 -271 723 -313 1050 -102 271 175 424 494 388 810 -49 426 -389 745
-815 763 -55 2 -127 0 -160 -5z m418 -568 c55 -24 117 -86 142 -141 15 -34 23
-41 47 -41 40 0 65 -15 84 -52 32 -62 -5 -128 -80 -142 -28 -5 -38 -15 -56
-51 -44 -92 -131 -125 -185 -71 -39 39 -42 72 -12 130 35 70 37 79 26 120 -11
38 -51 76 -81 76 -11 0 -32 -12 -47 -28 -22 -21 -29 -40 -34 -87 -9 -88 -33
-148 -80 -201 -111 -126 -305 -127 -412 -1 -19 22 -40 56 -47 74 -9 25 -18 33
-36 33 -56 0 -102 48 -102 106 0 35 59 94 94 94 20 0 30 9 47 41 11 23 39 61
61 85 35 38 46 44 82 44 51 0 81 -20 96 -64 13 -41 2 -75 -40 -123 -23 -25
-30 -44 -30 -74 0 -51 24 -97 54 -105 69 -17 103 20 116 124 12 90 46 158 106
211 81 71 187 87 287 43z" />
    <path d="M960 2190 l0 -1570 29 -32 29 -33 1542 0 1542 0 29 33 29 32 0 1570
0 1570 -205 0 -205 0 -2 -1125 -3 -1125 -26 -26 c-19 -19 -46 -30 -100 -40
-191 -36 -317 -161 -349 -348 -8 -44 -21 -77 -37 -97 l-25 -29 -647 0 -647 0
-26 28 c-19 19 -29 46 -37 96 -32 188 -158 314 -350 350 -54 10 -81 21 -100
40 l-26 26 -3 1125 -2 1125 -205 0 -205 0 0 -1570z" />
  </g>
</svg>