<svg width="14" height="11" viewBox="0 0 14 11" xmlns="http://www.w3.org/2000/svg">
<path d="M5.92591 6.91682C5.92591 7.48831 5.56905 7.88333 4.93682 8.00536V8.23453C4.93682 8.38406 4.89088 8.43219 4.74813 8.43219H4.36092C4.22419 8.43219 4.17223 8.38406 4.17223 8.23453V8.01568C3.67263 7.93547 3.34639 7.67393 3.18779 7.23594C3.14185 7.0971 3.18742 7.00104 3.32452 6.94776L3.67126 6.81943C3.8192 6.76213 3.89003 6.79279 3.95675 6.94776C4.03879 7.16661 4.22693 7.27346 4.51761 7.27346C4.9051 7.27346 5.09871 7.16117 5.09871 6.93143C5.09871 6.71802 4.8999 6.64841 4.4971 6.60573C4.21161 6.5682 4.06367 6.55216 3.80361 6.4456C3.68713 6.40677 3.57959 6.34308 3.48777 6.25854C3.32971 6.11531 3.19709 5.84203 3.19709 5.49513C3.19709 4.93424 3.53863 4.54982 4.17087 4.44325V4.22411C4.17087 4.08088 4.22173 4.0319 4.35955 4.0319H4.74704C4.88979 4.0319 4.93573 4.08003 4.93573 4.22411V4.44325C5.34865 4.51802 5.63933 4.74747 5.81243 5.13734C5.889 5.28687 5.85317 5.36651 5.69512 5.43641L5.34345 5.60198C5.20672 5.66615 5.13945 5.64466 5.06288 5.49513C4.96088 5.28687 4.82853 5.18547 4.54824 5.18547C4.18645 5.18547 4.03332 5.26568 4.03332 5.49513C4.03332 5.69279 4.24744 5.76755 4.63985 5.81023C4.83629 5.82744 5.03102 5.86174 5.22204 5.91279C5.31921 5.93898 5.41205 5.98041 5.49741 6.03568C5.72711 6.18005 5.94642 6.45763 5.92591 6.91682ZM14 1.83333V8.45052L13.8575 8.56052C13.0795 9.16208 11.3904 9.53448 9.44968 9.53448C8.93453 9.53525 8.41971 9.50743 7.90738 9.45112C7.3965 10.036 6.75442 10.4782 6.03928 10.7376C5.32414 10.997 4.55853 11.0655 3.81176 10.9368C3.065 10.8081 2.36066 10.4864 1.76252 10.0007C1.16439 9.51495 0.691344 8.88063 0.38622 8.15514C0.0810964 7.42964 -0.0464702 6.63588 0.0150703 5.84572C0.0766109 5.05557 0.325315 4.29396 0.738665 3.62988C1.15201 2.96579 1.71696 2.42018 2.38234 2.04246C3.04772 1.66474 3.79253 1.46684 4.54933 1.46667C4.69016 1.46667 4.82962 1.47383 4.96717 1.48701C5.36122 0.509323 7.41653 0 9.44968 0C11.7109 0 14 0.630208 14 1.83333ZM13.3 5.93341C12.3319 6.35565 10.9452 6.6 9.44968 6.6C9.3279 6.6 9.20694 6.59838 9.0868 6.59513C9.06922 6.84067 9.03347 7.08442 8.97988 7.32417C9.1352 7.33009 9.2918 7.33314 9.44968 7.33333C10.9912 7.33333 12.4383 7.05289 13.3 6.59427V5.93341ZM13.3 4.46674C12.3319 4.88898 10.9452 5.13333 9.44968 5.13333C9.29016 5.13333 9.13219 5.13047 8.97578 5.12474C9.03057 5.36686 9.06714 5.61311 9.08516 5.86122C9.20566 5.86466 9.3269 5.86647 9.44886 5.86667C10.992 5.86667 12.4383 5.58594 13.3 5.1276V4.46674ZM13.3 2.85771C12.4498 3.39167 10.9438 3.66667 9.44968 3.66667C9.08133 3.66667 8.71134 3.64948 8.35284 3.61654C8.50469 3.85787 8.63521 4.11321 8.74279 4.37937C8.97523 4.39255 9.21122 4.4 9.44995 4.4C10.9914 4.4 12.4386 4.11956 13.3002 3.66094L13.3 2.85771ZM5.71043 1.62365C6.45976 1.83061 7.14611 2.23491 7.7042 2.79812C8.28178 2.89066 8.86539 2.93568 9.44968 2.93276C11.9409 2.93276 13.3 2.20602 13.3 1.83276C13.3 1.45951 11.9409 0.733333 9.44968 0.733333C7.37141 0.733333 6.08124 1.23922 5.71043 1.62365ZM8.3996 6.23333C8.3996 4.01042 6.67136 2.2 4.54933 2.2C2.42731 2.2 0.699059 4.01042 0.699059 6.23333C0.699059 8.45625 2.42621 10.2667 4.54933 10.2667C6.67245 10.2667 8.3996 8.45739 8.3996 6.23333ZM13.3 8.06667V7.40008C12.3319 7.82232 10.9452 8.06667 9.44968 8.06667C9.21587 8.06667 8.9848 8.06008 8.75783 8.04833C8.66043 8.29572 8.54324 8.53404 8.40753 8.76075C8.73568 8.78596 9.08243 8.8 9.4494 8.8C11.3067 8.8 12.6773 8.44565 13.3 8.06638V8.06667Z" />
</svg>