<svg width="18" height="18" viewBox="0 0 18 18" fill="none" xmlns="http://www.w3.org/2000/svg">
  <path
    d="M17.3299 2.56981C17.3299 2.56981 17.5999 1.76981 17.0199 1.20981C16.4899 0.689812 15.7999 0.969812 15.7999 0.969812C15.1899 1.26981 10.0399 4.43981 8.1299 6.53981C7.2699 7.49981 6.0699 10.3298 7.0399 11.3598C7.9599 12.3398 10.9999 11.1898 11.8299 10.3598C13.8899 8.29981 17.0399 3.18981 17.3299 2.56981ZM0.399902 16.6498C2.7699 15.0898 1.8599 13.2398 3.6299 12.0098C4.5599 11.3598 5.8499 11.3898 6.7099 12.2998C7.3399 12.9698 7.5099 14.8698 6.5499 15.7598C4.9799 17.2098 2.5499 17.3098 0.399902 16.6498Z"
    fill="currentColor" />
</svg>