<svg width="14" height="24" viewBox="0 0 14 24" fill="none" xmlns="http://www.w3.org/2000/svg">
<path d="M0.000498671 5.90152C-0.00286663 5.98487 0.0108289 6.06804 0.0407453 6.14591C0.0706617 6.22379 0.116169 6.29473 0.174476 6.35439C0.232784 6.41406 0.302663 6.46118 0.37983 6.49288C0.456997 6.52458 0.539824 6.54018 0.623235 6.53874H2.75213C3.10984 6.53874 3.39224 6.24909 3.44003 5.89428C3.6703 4.19985 4.83323 2.96596 6.90563 2.96596C8.67537 2.96596 10.2974 3.85083 10.2974 5.98117C10.2974 7.62056 9.32996 8.37364 7.80643 9.52063C6.06856 10.7835 4.69275 12.2578 4.79123 14.6502L4.79847 15.2093C4.80281 15.5626 5.09101 15.8465 5.44438 15.8465H7.53706C7.89477 15.8465 8.18297 15.5568 8.18297 15.2006V14.9283C8.18297 13.0775 8.88825 12.5358 10.7898 11.0949C12.3625 9.89862 14.0005 8.57059 14.0005 5.78421C14.0005 1.88414 10.7072 0 7.10115 0C3.83105 0 0.246697 1.52498 0.00194679 5.90152H0.000498671ZM4.02077 20.7791C4.02077 22.1549 5.11853 23.1716 6.62758 23.1716C8.1989 23.1716 9.28072 22.1549 9.28072 20.7791C9.28072 19.3526 8.1989 18.3534 6.62613 18.3534C5.11997 18.3534 4.02077 19.3526 4.02077 20.7791Z" fill="currentColor"/>
</svg>
