<?xml version="1.0" encoding="utf-8"?>
<!-- Generator: Adobe Illustrator 23.0.5, SVG Export Plug-In . SVG Version: 6.00 Build 0)  -->
<svg version="1.1" id="Capa_1" xmlns="http://www.w3.org/2000/svg" xmlns:xlink="http://www.w3.org/1999/xlink" x="0px" y="0px"
	 viewBox="0 0 26 14" style="enable-background:new 0 0 26 14;" xml:space="preserve">
<path class="st0" d="M18.8,0.8H6.3c-1,0-2,0.3-3,0.7C2.4,2,1.6,2.7,1,3.5C0.5,4.4,0.1,5.4,0,6.4c-0.1,1,0.1,2.1,0.5,3
	c0.4,1,1,1.8,1.8,2.4c0.8,0.6,1.7,1.1,2.8,1.3c1,0.2,2.1,0.1,3-0.2s1.9-0.9,2.6-1.6h3.6c0.7,0.7,1.6,1.3,2.6,1.6c1,0.3,2,0.4,3,0.2
	c1-0.2,2-0.6,2.8-1.3c0.8-0.6,1.4-1.5,1.8-2.4c0.4-0.9,0.6-2,0.5-3c-0.1-1-0.4-2-1-2.9c-0.6-0.9-1.3-1.6-2.3-2
	C20.8,1,19.8,0.8,18.8,0.8z M9.7,7.5c0,0.1,0,0.2-0.1,0.3C9.5,7.9,9.3,7.9,9.2,7.9h-2v2c0,0.1,0,0.2-0.1,0.3
	c-0.1,0.1-0.2,0.1-0.3,0.1H5.8c-0.1,0-0.2,0-0.3-0.1c-0.1-0.1-0.1-0.2-0.1-0.3v-2h-2C3.2,7.9,3,7.9,3,7.8C2.9,7.7,2.8,7.6,2.8,7.5
	V6.5c0-0.1,0-0.2,0.1-0.3C3,6.1,3.2,6.1,3.3,6.1h2V4c0-0.1,0-0.2,0.1-0.3c0.1-0.1,0.2-0.1,0.3-0.1h0.9c0.1,0,0.2,0,0.3,0.1
	C7.1,3.8,7.2,3.9,7.2,4v2h2c0.1,0,0.2,0,0.3,0.1c0.1,0.1,0.1,0.2,0.1,0.3V7.5z M18.1,10.4c-0.3,0-0.6-0.1-0.9-0.3
	C17,10,16.8,9.8,16.7,9.5c-0.1-0.3-0.1-0.6-0.1-0.9C16.7,8.3,16.8,8,17,7.8c0.2-0.2,0.5-0.4,0.8-0.4c0.3-0.1,0.6,0,0.9,0.1
	C19,7.5,19.3,7.7,19.4,8c0.2,0.3,0.3,0.6,0.3,0.9c0,0.4-0.2,0.8-0.5,1.1C18.9,10.3,18.5,10.4,18.1,10.4z M20.6,6.7
	c-0.3,0-0.6-0.1-0.9-0.3c-0.3-0.2-0.5-0.4-0.6-0.7c-0.1-0.3-0.1-0.6-0.1-0.9c0.1-0.3,0.2-0.6,0.4-0.8c0.2-0.2,0.5-0.4,0.8-0.4
	s0.6,0,0.9,0.1c0.3,0.1,0.5,0.3,0.7,0.6s0.3,0.6,0.3,0.9c0,0.4-0.2,0.8-0.5,1.1C21.4,6.5,21,6.7,20.6,6.7z" fill="currentColor"/>
</svg>
