<svg width="20" height="23" viewBox="0 0 20 23" fill="none" xmlns="http://www.w3.org/2000/svg">
<path d="M4.43213 10.9524H13.2964V13.1429H4.43213V10.9524ZM6.6482 19.7143H2.21607V2.19048H9.9723V7.66667H15.5125V11.0619L17.7285 8.87143V6.57143L11.0803 0H2.21607C1.62833 0 1.06466 0.230782 0.649071 0.641576C0.233478 1.05237 0 1.60953 0 2.19048V19.7143C0 20.2952 0.233478 20.8524 0.649071 21.2632C1.06466 21.674 1.62833 21.9048 2.21607 21.9048H6.6482V19.7143ZM4.43213 17.5238H8.97507L9.9723 16.5381V15.3333H4.43213V17.5238ZM17.9501 12.0476C18.0609 12.0476 18.2826 12.1571 18.3934 12.2667L19.8338 13.6905C20.0554 13.9095 20.0554 14.3476 19.8338 14.5667L18.7258 15.6619L16.3989 13.3619L17.5069 12.2667C17.6177 12.1571 17.7285 12.0476 17.9501 12.0476ZM17.9501 16.319L11.1911 23H8.86427V20.7L15.6233 14.019L17.9501 16.319Z" fill="currentColor" />
</svg>
