<?xml version="1.0" encoding="iso-8859-1"?>
<!-- Generator: Adobe Illustrator 19.0.0, SVG Export Plug-In . SVG Version: 6.00 Build 0)  -->
<svg version="1.1" id="Layer_1" xmlns="http://www.w3.org/2000/svg" xmlns:xlink="http://www.w3.org/1999/xlink" x="0px" y="0px"
	 viewBox="0 0 511.999 511.999" style="enable-background:new 0 0 511.999 511.999;" xml:space="preserve">
<g>
	<g>
		<path d="M454.134,81.511l-47.295-47.289c-45.618-45.618-119.863-45.64-165.502,0c-41.624,41.618-45.281,107.041-10.983,152.844
			L28.541,388.885c-6.53,6.525-6.53,17.111,0,23.642l47.284,47.289c6.527,6.527,17.115,6.527,23.642,0l11.826-11.826l59.111,59.114
			c6.527,6.527,17.115,6.527,23.642,0l35.467-35.467l-35.467-35.459c-6.53-6.53-6.53-17.116,0-23.647
			c6.53-6.532,17.111-6.525,23.642-0.006l35.472,35.464l35.464-35.464c6.527-6.527,6.527-17.115,0-23.642l-59.114-59.111
			L301.282,258c45.825,34.293,111.243,30.646,152.855-10.983C499.763,201.39,499.763,127.139,454.134,81.511z M406.84,199.735
			c-17.452,17.452-44.104,19.106-63.275,6.283c-6.401-4.289-49.496-48.128-54.944-53.577c-19.549-19.555-19.549-51.371-0.011-70.925
			c0.011-0.006,0.011-0.006,0.011-0.006c19.538-19.555,51.376-19.566,70.936-0.006c6.012,6.014,49.304,48.561,53.574,54.944
			C426.018,155.7,424.236,182.35,406.84,199.735z"/>
	</g>
</g>
<g>
</g>
<g>
</g>
<g>
</g>
<g>
</g>
<g>
</g>
<g>
</g>
<g>
</g>
<g>
</g>
<g>
</g>
<g>
</g>
<g>
</g>
<g>
</g>
<g>
</g>
<g>
</g>
<g>
</g>
</svg>
