<svg width="14" height="14" viewBox="0 0 14 14" fill="none" xmlns="http://www.w3.org/2000/svg">
  <path
    d="M13.3535 12.6463L10.6522 9.94489C11.6062 8.80877 12.0847 7.34824 11.9881 5.86786C11.8915 4.38749 11.2271 3.00156 10.1335 1.99909C9.03995 0.996624 7.6016 0.45501 6.11843 0.487196C4.63525 0.519383 3.22175 1.12288 2.1727 2.17185C1.12364 3.22081 0.520013 4.63426 0.487696 6.11743C0.455379 7.6006 0.996865 9.039 1.99924 10.1327C3.00161 11.2263 4.38748 11.8908 5.86784 11.9876C7.34821 12.0843 8.80878 11.6059 9.94499 10.652L12.6464 13.3534C12.7402 13.4472 12.8674 13.4999 13 13.4999C13.1326 13.4999 13.2598 13.4472 13.3535 13.3534C13.4473 13.2597 13.5 13.1325 13.5 12.9999C13.5 12.8673 13.4473 12.7401 13.3535 12.6463ZM1.50036 6.24983C1.50036 5.31036 1.77894 4.392 2.30088 3.61087C2.82282 2.82973 3.56467 2.22091 4.43261 1.8614C5.30056 1.50188 6.25563 1.40782 7.17704 1.59109C8.09845 1.77437 8.94482 2.22677 9.60912 2.89107C10.2734 3.55537 10.7258 4.40174 10.9091 5.32315C11.0924 6.24456 10.9983 7.19962 10.6388 8.06757C10.2793 8.93552 9.67045 9.67737 8.88932 10.1993C8.10819 10.7212 7.18982 10.9998 6.25036 10.9998C4.99102 10.9984 3.78366 10.4975 2.89318 9.60701C2.00269 8.71652 1.50178 7.50917 1.50036 6.24983Z"
    fill="currentColor" />
</svg>