<svg version="1.0" xmlns="http://www.w3.org/2000/svg" width="512.000000pt" height="512.000000pt"
  viewBox="0 0 512.000000 512.000000" preserveAspectRatio="xMidYMid meet">

  <g transform="translate(0.000000,512.000000) scale(0.100000,-0.100000)" fill="currentColor" stroke="none">
    <path d="M2503 5110 c-32 -13 -1975 -1169 -1997 -1189 -49 -43 -51 -57 -54
-381 -4 -343 10 -689 33 -860 106 -775 438 -1457 964 -1980 303 -300 638 -524
1009 -671 98 -39 124 -37 277 30 348 151 662 366 940 645 397 398 686 888 845
1433 117 399 155 765 148 1413 -3 313 -5 328 -54 372 -24 21 -1949 1166 -1991
1184 -36 16 -87 17 -120 4z m868 -1903 c73 -49 102 -145 65 -215 -8 -15 -268
-280 -578 -589 -620 -618 -595 -598 -690 -573 -37 10 -75 43 -255 223 -117
116 -220 226 -229 245 -22 47 -15 129 15 171 43 59 129 86 198 61 15 -6 92
-75 171 -153 l142 -142 483 482 c265 265 496 489 512 497 46 24 125 21 166 -7z" />
  </g>
</svg>