<svg width="22" height="20" viewBox="0 0 22 20" fill="none" xmlns="http://www.w3.org/2000/svg">
  <path
    d="M21.7708 17.9545H2.0625V0.227273C2.0625 0.102273 1.95938 0 1.83333 0H0.229167C0.103125 0 0 0.102273 0 0.227273V19.7727C0 19.8977 0.103125 20 0.229167 20H21.7708C21.8969 20 22 19.8977 22 19.7727V18.1818C22 18.0568 21.8969 17.9545 21.7708 17.9545ZM5.09323 13.571C5.18203 13.6591 5.32526 13.6591 5.41693 13.571L9.37865 9.66193L13.0339 13.3097C13.1227 13.3977 13.2688 13.3977 13.3576 13.3097L21.2466 5.48864C21.3354 5.40057 21.3354 5.25568 21.2466 5.16761L20.1122 4.04261C20.0692 4.00032 20.011 3.97659 19.9504 3.97659C19.8898 3.97659 19.8316 4.00032 19.7885 4.04261L13.2 10.5739L9.55052 6.93182C9.50745 6.88952 9.44929 6.8658 9.38867 6.8658C9.32806 6.8658 9.26989 6.88952 9.22682 6.93182L3.96172 12.1222C3.91907 12.1649 3.89515 12.2226 3.89515 12.2827C3.89515 12.3428 3.91907 12.4005 3.96172 12.4432L5.09323 13.571Z"
    fill="currentColor" />
</svg>