<svg width="18" height="18" viewBox="0 0 18 18" fill="none" xmlns="http://www.w3.org/2000/svg">
  <path
    d="M1.94595 0H10.7027C11.2188 0 11.7138 0.189642 12.0787 0.527208C12.4436 0.864773 12.6486 1.32261 12.6486 1.8V3.6H10.7027V1.8H1.94595V16.2H10.7027V14.4H12.6486V16.2C12.6486 16.6774 12.4436 17.1352 12.0787 17.4728C11.7138 17.8104 11.2188 18 10.7027 18H1.94595C1.42985 18 0.93489 17.8104 0.569954 17.4728C0.205019 17.1352 0 16.6774 0 16.2V1.8C0 1.32261 0.205019 0.864773 0.569954 0.527208C0.93489 0.189642 1.42985 0 1.94595 0Z"
    fill="currentColor" />
  <path
    d="M11.7631 12.231L13.135 13.5L17.9999 9L13.135 4.5L11.7631 5.769L14.2734 8.1H4.86475V9.9H14.2734L11.7631 12.231Z"
    fill="currentColor" />
</svg>