<svg width="15" height="24" viewBox="0 0 15 24" fill="none" xmlns="http://www.w3.org/2000/svg">
<path d="M10.6838 11.3965L5.41033 9.85352C4.79998 9.67773 4.37517 9.10645 4.37517 8.47168C4.37517 7.67578 5.01971 7.03125 5.8156 7.03125H9.05291C9.64861 7.03125 10.2345 7.21191 10.7228 7.54395C11.0207 7.74414 11.4211 7.69531 11.675 7.44629L13.3742 5.78613C13.7209 5.44922 13.672 4.8877 13.2863 4.58984C12.09 3.65234 10.5959 3.12988 9.06267 3.125V0.78125C9.06267 0.351562 8.71111 0 8.28142 0H6.71892C6.28924 0 5.93767 0.351562 5.93767 0.78125V3.125H5.8156C2.70525 3.125 0.205252 5.7959 0.493338 8.96484C0.698416 11.2158 2.41717 13.0469 4.58514 13.6816L9.59002 15.1465C10.2004 15.3271 10.6252 15.8936 10.6252 16.5283C10.6252 17.3242 9.98064 17.9688 9.18474 17.9688H5.94744C5.35174 17.9688 4.7658 17.7881 4.27752 17.4561C3.97967 17.2559 3.57928 17.3047 3.32537 17.5537L1.62615 19.2139C1.27947 19.5508 1.3283 20.1123 1.71404 20.4102C2.91033 21.3477 4.40447 21.8701 5.93767 21.875V24.2188C5.93767 24.6484 6.28924 25 6.71892 25H8.28142C8.71111 25 9.06267 24.6484 9.06267 24.2188V21.8652C11.3381 21.8213 13.4719 20.4688 14.2238 18.3154C15.2736 15.3076 13.5109 12.2217 10.6838 11.3965Z" fill="#F78A0E"/>
</svg>
