<?xml version="1.0" encoding="utf-8"?>
<!-- Generator: Adobe Illustrator 23.0.5, SVG Export Plug-In . SVG Version: 6.00 Build 0)  -->
<svg version="1.1" id="Capa_1" xmlns="http://www.w3.org/2000/svg" xmlns:xlink="http://www.w3.org/1999/xlink" x="0px" y="0px"
	 viewBox="0 0 15 24" style="enable-background:new 0 0 15 24;" xml:space="preserve">
<style type="text/css">
	.st0{fill:#EBEBF5;}
</style>
<path class="st0" d="M10.7,11.4L5.4,9.9c-0.6-0.2-1-0.7-1-1.4C4.4,7.7,5,7,5.8,7h3.2c0.6,0,1.2,0.2,1.7,0.5c0.3,0.2,0.7,0.2,1-0.1
	l1.7-1.7c0.3-0.3,0.3-0.9-0.1-1.2c-1.2-0.9-2.7-1.5-4.2-1.5V0.8C9.1,0.4,8.7,0,8.3,0H6.7C6.3,0,5.9,0.4,5.9,0.8v2.3H5.8
	C2.7,3.1,0.2,5.8,0.5,9c0.2,2.3,1.9,4.1,4.1,4.7l5,1.5c0.6,0.2,1,0.7,1,1.4c0,0.8-0.6,1.4-1.4,1.4H5.9c-0.6,0-1.2-0.2-1.7-0.5
	c-0.3-0.2-0.7-0.2-1,0.1l-1.7,1.7c-0.3,0.3-0.3,0.9,0.1,1.2c1.2,0.9,2.7,1.5,4.2,1.5v2.3c0,0.4,0.4,0.8,0.8,0.8h1.6
	c0.4,0,0.8-0.4,0.8-0.8v-2.4c2.3,0,4.4-1.4,5.2-3.5C15.3,15.3,13.5,12.2,10.7,11.4z"/>
</svg>
