<svg width="73" height="53" viewBox="0 0 73 53" fill="none" xmlns="http://www.w3.org/2000/svg">
<path d="M10.5625 0.5625H20.9375V11.3784C19.5519 10.8872 18.0554 10.7985 16.6215 11.1227C15.1876 11.4469 13.8748 12.1707 12.8353 13.2103C11.7957 14.2498 11.0719 15.5626 10.7477 16.9965C10.4235 18.4304 10.5122 19.9269 11.0034 21.3125H0.1875V10.9375C0.1875 8.18588 1.28058 5.54696 3.22627 3.60127C5.17196 1.65558 7.81088 0.5625 10.5625 0.5625Z" fill="#35ACEF"/>
<path d="M26.125 30.1676L32.0699 36.1176C32.5569 36.6047 33.2175 36.8783 33.9062 36.8783C34.595 36.8783 35.2556 36.6047 35.7426 36.1176C36.2297 35.6306 36.5033 34.97 36.5033 34.2812C36.5033 33.5925 36.2297 32.9319 35.7426 32.4449L29.7926 26.5H72.8125V42.0625C72.8125 44.8141 71.7194 47.453 69.7737 49.3987C67.828 51.3444 65.1891 52.4375 62.4375 52.4375H26.125V30.1676Z" fill="#35ACEF"/>
<path d="M17.2699 26.5L11.3199 32.4449C10.8328 32.9319 10.5592 33.5925 10.5592 34.2812C10.5592 34.97 10.8328 35.6306 11.3199 36.1176C11.8069 36.6047 12.4675 36.8783 13.1562 36.8783C13.845 36.8783 14.5056 36.6047 14.9926 36.1176L20.9375 30.1676V52.4375H10.5625C7.81088 52.4375 5.17196 51.3444 3.22627 49.3987C1.28058 47.453 0.1875 44.8141 0.1875 42.0625V26.5H17.2699Z" fill="#35ACEF"/>
<path d="M36.0591 21.3125C36.5503 19.9269 36.639 18.4304 36.3148 16.9965C35.9906 15.5626 35.2668 14.2498 34.2272 13.2103C33.1877 12.1707 31.8749 11.4469 30.441 11.1227C29.0071 10.7985 27.5106 10.8872 26.125 11.3784V0.5625H62.4375C65.1891 0.5625 67.828 1.65558 69.7737 3.60127C71.7194 5.54696 72.8125 8.18588 72.8125 10.9375V21.3125H36.0591Z" fill="#35ACEF"/>
<path d="M26.125 18.7188V21.3125H28.7187C29.2317 21.3125 29.7332 21.1604 30.1598 20.8754C30.5863 20.5904 30.9187 20.1853 31.1151 19.7113C31.3114 19.2374 31.3627 18.7159 31.2627 18.2127C31.1626 17.7096 30.9155 17.2474 30.5528 16.8847C30.1901 16.522 29.7279 16.2749 29.2248 16.1748C28.7216 16.0748 28.2001 16.1261 27.7262 16.3224C27.2522 16.5188 26.8471 16.8512 26.5621 17.2777C26.2771 17.7043 26.125 18.2058 26.125 18.7188Z" fill="#35ACEF"/>
<path d="M20.9375 18.7188V21.3125H18.3438C17.8308 21.3125 17.3293 21.1604 16.9027 20.8754C16.4762 20.5904 16.1438 20.1853 15.9474 19.7113C15.7511 19.2374 15.6998 18.7159 15.7998 18.2127C15.8999 17.7096 16.147 17.2474 16.5097 16.8847C16.8724 16.522 17.3346 16.2749 17.8377 16.1748C18.3409 16.0748 18.8624 16.1261 19.3363 16.3224C19.8103 16.5188 20.2154 16.8512 20.5004 17.2777C20.7854 17.7043 20.9375 18.2058 20.9375 18.7188Z" fill="#35ACEF"/>
</svg>
