<svg width="60" height="30" viewBox="0 0 60 30" fill="none" xmlns="http://www.w3.org/2000/svg">
<path d="M17.4999 12.5V10C17.4999 9.33696 17.2365 8.70107 16.7676 8.23223C16.2988 7.76339 15.6629 7.5 14.9999 7.5C14.3368 7.5 13.7009 7.76339 13.2321 8.23223C12.7632 8.70107 12.4999 9.33696 12.4999 10V12.5H9.99986C9.33681 12.5 8.70093 12.7634 8.23209 13.2322C7.76325 13.7011 7.49986 14.337 7.49986 15C7.49986 15.663 7.76325 16.2989 8.23209 16.7678C8.70093 17.2366 9.33681 17.5 9.99986 17.5H12.4999V20C12.4999 20.663 12.7632 21.2989 13.2321 21.7678C13.7009 22.2366 14.3368 22.5 14.9999 22.5C15.6629 22.5 16.2988 22.2366 16.7676 21.7678C17.2365 21.2989 17.4999 20.663 17.4999 20V17.5H19.9999C20.6629 17.5 21.2988 17.2366 21.7676 16.7678C22.2365 16.2989 22.4999 15.663 22.4999 15C22.4999 14.337 22.2365 13.7011 21.7676 13.2322C21.2988 12.7634 20.6629 12.5 19.9999 12.5H17.4999ZM14.9999 3.85162e-09H44.9999C47.502 -5.66913e-05 49.9643 0.625794 52.1628 1.82056C54.3612 3.01533 56.2258 4.74107 57.5869 6.84062C58.9479 8.94017 59.7621 11.3468 59.9554 13.8415C60.1486 16.3361 59.7148 18.8395 58.6933 21.1236C57.6719 23.4077 56.0953 25.4 54.1071 26.9191C52.1189 28.4382 49.7823 29.4358 47.31 29.8211C44.8377 30.2064 42.3084 29.9671 39.9522 29.1251C37.596 28.283 35.4879 26.865 33.8199 25H26.1799C24.5118 26.865 22.4037 28.283 20.0475 29.1251C17.6914 29.9671 15.162 30.2064 12.6897 29.8211C10.2174 29.4358 7.88083 28.4382 5.89264 26.9191C3.90444 25.4 2.32784 23.4077 1.30638 21.1236C0.284926 18.8395 -0.14893 16.3361 0.0443222 13.8415C0.237574 11.3468 1.05179 8.94017 2.41284 6.84062C3.77388 4.74107 5.63851 3.01533 7.83694 1.82056C10.0354 0.625794 12.4977 -5.66913e-05 14.9999 3.85162e-09ZM44.9999 12.5C45.6629 12.5 46.2988 12.2366 46.7676 11.7678C47.2365 11.2989 47.4999 10.663 47.4999 10C47.4999 9.33696 47.2365 8.70107 46.7676 8.23223C46.2988 7.76339 45.6629 7.5 44.9999 7.5C44.3368 7.5 43.7009 7.76339 43.2321 8.23223C42.7632 8.70107 42.4999 9.33696 42.4999 10C42.4999 10.663 42.7632 11.2989 43.2321 11.7678C43.7009 12.2366 44.3368 12.5 44.9999 12.5ZM39.9999 17.5C40.6629 17.5 41.2988 17.2366 41.7676 16.7678C42.2365 16.2989 42.4999 15.663 42.4999 15C42.4999 14.337 42.2365 13.7011 41.7676 13.2322C41.2988 12.7634 40.6629 12.5 39.9999 12.5C39.3368 12.5 38.7009 12.7634 38.2321 13.2322C37.7633 13.7011 37.4999 14.337 37.4999 15C37.4999 15.663 37.7633 16.2989 38.2321 16.7678C38.7009 17.2366 39.3368 17.5 39.9999 17.5ZM49.9999 17.5C50.6629 17.5 51.2988 17.2366 51.7676 16.7678C52.2365 16.2989 52.4999 15.663 52.4999 15C52.4999 14.337 52.2365 13.7011 51.7676 13.2322C51.2988 12.7634 50.6629 12.5 49.9999 12.5C49.3368 12.5 48.7009 12.7634 48.2321 13.2322C47.7632 13.7011 47.4999 14.337 47.4999 15C47.4999 15.663 47.7632 16.2989 48.2321 16.7678C48.7009 17.2366 49.3368 17.5 49.9999 17.5ZM44.9999 22.5C45.6629 22.5 46.2988 22.2366 46.7676 21.7678C47.2365 21.2989 47.4999 20.663 47.4999 20C47.4999 19.337 47.2365 18.7011 46.7676 18.2322C46.2988 17.7634 45.6629 17.5 44.9999 17.5C44.3368 17.5 43.7009 17.7634 43.2321 18.2322C42.7632 18.7011 42.4999 19.337 42.4999 20C42.4999 20.663 42.7632 21.2989 43.2321 21.7678C43.7009 22.2366 44.3368 22.5 44.9999 22.5Z" fill="#40B589"/>
</svg>
