<?xml version="1.0" encoding="utf-8"?>
<!-- Generator: Adobe Illustrator 23.0.5, SVG Export Plug-In . SVG Version: 6.00 Build 0)  -->
<svg version="1.1" id="Capa_1" xmlns="http://www.w3.org/2000/svg" xmlns:xlink="http://www.w3.org/1999/xlink" x="0px" y="0px"
	 viewBox="0 0 19 20" style="enable-background:new 0 0 19 20;" xml:space="preserve">
<style type="text/css">
	.st0{fill:#F78A0E;}
</style>
<path class="st0" d="M10,20c3.7,0,7.1-2,8.8-5.3L11,10l7.8-4.7C17.1,2,13.7,0,10,0C4.5,0,0,4.5,0,10S4.5,20,10,20z M9.5,4
	c0.4,0,0.8,0.2,1.1,0.4C10.8,4.7,11,5.1,11,5.5c0,0.4-0.2,0.8-0.4,1.1C10.3,6.8,9.9,7,9.5,7C9.1,7,8.7,6.8,8.4,6.6
	C8.2,6.3,8,5.9,8,5.5c0-0.4,0.2-0.8,0.4-1.1C8.7,4.2,9.1,4,9.5,4z"/>
</svg>
