<svg width="54" height="57" viewBox="0 0 54 57" fill="none" xmlns="http://www.w3.org/2000/svg">
<path d="M28.4997 56.4168C38.8819 56.4168 48.2172 50.7358 53.0915 41.5819L31.2913 28.5002L53.0915 15.4184C48.2172 6.26454 38.8819 0.583496 28.4997 0.583496C13.1064 0.583496 0.583008 13.1069 0.583008 28.5002C0.583008 43.8934 13.1064 56.4168 28.4997 56.4168ZM27.1038 11.7502C28.2148 11.7505 29.2801 12.1922 30.0654 12.978C30.8507 13.7639 31.2917 14.8295 31.2913 15.9405C31.291 17.0514 30.8493 18.1167 30.0635 18.902C29.2776 19.6874 28.212 20.1283 27.101 20.128C25.9901 20.1276 24.9248 19.6859 24.1395 18.9001C23.3542 18.1142 22.9132 17.0486 22.9135 15.9377C22.9139 14.8267 23.3556 13.7614 24.1414 12.9761C24.9273 12.1908 25.9929 11.7498 27.1038 11.7502Z" fill="#AA80FF"/>
</svg>
