<svg width="26" height="14" viewBox="0 0 26 14" fill="none" xmlns="http://www.w3.org/2000/svg">
<path d="M18.7536 0.75H6.25089C5.22039 0.749853 4.20585 1.00451 3.29757 1.49131C2.3893 1.97811 1.61549 2.68193 1.04502 3.54013C0.474559 4.39833 0.125148 5.38427 0.027896 6.41017C-0.0693556 7.43607 0.0885702 8.4701 0.487613 9.4202C0.886657 10.3703 1.51443 11.207 2.31506 11.8558C3.11568 12.5046 4.06431 12.9453 5.07648 13.1388C6.08865 13.3323 7.13296 13.2725 8.11644 12.9648C9.09992 12.6571 9.99204 12.1109 10.7134 11.375H14.2884C15.0097 12.1108 15.9017 12.6569 16.885 12.9647C17.8684 13.2725 18.9126 13.3323 19.9246 13.139C20.9367 12.9456 21.8853 12.505 22.6859 11.8564C23.4866 11.2078 24.1144 10.3714 24.5136 9.42146C24.9129 8.47155 25.071 7.43768 24.9741 6.41187C24.8771 5.38606 24.528 4.40013 23.9579 3.54184C23.3878 2.68355 22.6143 1.97953 21.7063 1.49244C20.7983 1.00535 19.784 0.750304 18.7536 0.75ZM9.68839 7.46875C9.68839 7.59307 9.63901 7.7123 9.5511 7.80021C9.46319 7.88811 9.34396 7.9375 9.21964 7.9375H7.18839V9.96875C7.18839 10.0931 7.13901 10.2123 7.0511 10.3002C6.96319 10.3881 6.84396 10.4375 6.71964 10.4375H5.78214C5.65782 10.4375 5.5386 10.3881 5.45069 10.3002C5.36278 10.2123 5.31339 10.0931 5.31339 9.96875V7.9375H3.28214C3.15782 7.9375 3.0386 7.88811 2.95069 7.80021C2.86278 7.7123 2.81339 7.59307 2.81339 7.46875V6.53125C2.81339 6.40693 2.86278 6.2877 2.95069 6.19979C3.0386 6.11189 3.15782 6.0625 3.28214 6.0625H5.31339V4.03125C5.31339 3.90693 5.36278 3.7877 5.45069 3.69979C5.5386 3.61189 5.65782 3.5625 5.78214 3.5625H6.71964C6.84396 3.5625 6.96319 3.61189 7.0511 3.69979C7.13901 3.7877 7.18839 3.90693 7.18839 4.03125V6.0625H9.21964C9.34396 6.0625 9.46319 6.11189 9.5511 6.19979C9.63901 6.2877 9.68839 6.40693 9.68839 6.53125V7.46875ZM18.1259 10.4375C17.8169 10.4375 17.5148 10.3459 17.2578 10.1742C17.0009 10.0025 16.8006 9.75845 16.6823 9.47294C16.5641 9.18743 16.5331 8.87327 16.5934 8.57017C16.6537 8.26708 16.8025 7.98867 17.021 7.77015C17.2396 7.55163 17.518 7.40281 17.8211 7.34252C18.1242 7.28223 18.4383 7.31318 18.7238 7.43144C19.0093 7.5497 19.2534 7.74997 19.4251 8.00692C19.5968 8.26387 19.6884 8.56597 19.6884 8.875C19.6884 9.2894 19.5238 9.68683 19.2307 9.97985C18.9377 10.2729 18.5403 10.4375 18.1259 10.4375ZM20.6259 6.6875C20.3169 6.6875 20.0148 6.59586 19.7578 6.42417C19.5009 6.25248 19.3006 6.00845 19.1823 5.72294C19.0641 5.43743 19.0331 5.12327 19.0934 4.82017C19.1537 4.51708 19.3025 4.23867 19.521 4.02015C19.7396 3.80163 20.018 3.65281 20.3211 3.59252C20.6242 3.53223 20.9383 3.56318 21.2238 3.68144C21.5093 3.7997 21.7534 3.99997 21.9251 4.25692C22.0968 4.51387 22.1884 4.81597 22.1884 5.125C22.1884 5.5394 22.0238 5.93683 21.7307 6.22985C21.4377 6.52288 21.0403 6.6875 20.6259 6.6875Z" fill="#F78A0E"/>
</svg>
