<svg width="23" height="23" viewBox="0 0 23 23" fill="none" xmlns="http://www.w3.org/2000/svg">
<path d="M13.6001 13.5999H22.0001V21.9999H13.6001V13.5999Z" stroke="#EBEBF5" stroke-opacity="0.6" stroke-width="2" stroke-linejoin="round"/>
<path d="M5.725 1L10.45 9.4H1L5.725 1Z" stroke="#EBEBF5" stroke-opacity="0.6" stroke-width="2" stroke-linejoin="round"/>
<path d="M17.8001 9.4C18.914 9.4 19.9823 8.9575 20.7699 8.16985C21.5576 7.3822 22.0001 6.31391 22.0001 5.2C22.0001 4.08609 21.5576 3.0178 20.7699 2.23015C19.9823 1.4425 18.914 1 17.8001 1C16.6862 1 15.6179 1.4425 14.8302 2.23015C14.0426 3.0178 13.6001 4.08609 13.6001 5.2C13.6001 6.31391 14.0426 7.3822 14.8302 8.16985C15.6179 8.9575 16.6862 9.4 17.8001 9.4Z" stroke="#EBEBF5" stroke-opacity="0.6" stroke-width="2" stroke-linejoin="round"/>
<path d="M1 13.5999L9.4 21.9999" stroke="#EBEBF5" stroke-opacity="0.6" stroke-width="2" stroke-linecap="round" stroke-linejoin="round"/>
<path d="M9.4 13.5999L1 21.9999" stroke="#EBEBF5" stroke-opacity="0.6" stroke-width="2" stroke-linecap="round" stroke-linejoin="round"/>
</svg>
