<?xml version="1.0" encoding="utf-8"?>
<!-- Generator: Adobe Illustrator 23.0.5, SVG Export Plug-In . SVG Version: 6.00 Build 0)  -->
<svg version="1.1" id="Capa_1" xmlns="http://www.w3.org/2000/svg" xmlns:xlink="http://www.w3.org/1999/xlink" x="0px" y="0px"
	 viewBox="0 0 29 21" style="enable-background:new 0 0 29 21;" xml:space="preserve">
<style type="text/css">
	.st0{fill:#F6891F;fill-opacity:0.6;}
</style>
<path class="st0" d="M28.1,19.1c-1.8,0.7-3.5,1-5.3,1c-5.6,0-11.2-2.8-16.7-2.8c-1.4,0-2.8,0.2-4.2,0.6C1.8,18,1.6,18,1.5,18
	C0.7,18,0,17.4,0,16.6V2.3C0,1.8,0.3,1.2,0.9,1c1.8-0.7,3.5-1,5.3-1c5.6,0,11.2,2.8,16.7,2.8c1.4,0,2.8-0.2,4.2-0.6
	c0.2,0,0.3-0.1,0.5-0.1c0.8,0,1.5,0.6,1.5,1.4v14.3C29,18.4,28.7,18.9,28.1,19.1z M2.2,15.6C3.1,15.4,4,15.3,5,15.2
	c-0.3-1.3-1.4-2.3-2.8-2.3V15.6z M2.2,2.8V5C3.7,5,5,3.7,5.1,2.2C4,2.3,3.1,2.5,2.2,2.8z M14.5,5.8c-2,0-3.6,1.9-3.6,4.3
	c0,2.4,1.6,4.3,3.6,4.3s3.6-1.9,3.6-4.3C18.1,7.7,16.5,5.8,14.5,5.8z M26.8,4.5c-0.8,0.2-1.6,0.3-2.5,0.4c0.3,1.2,1.2,2.1,2.5,2.2
	V4.5z M26.8,15.1c-1.4,0.2-2.5,1.3-2.5,2.8c0.9-0.1,1.7-0.3,2.5-0.6V15.1z"/>
</svg>
