<?xml version="1.0" encoding="utf-8"?>
<!-- Generator: Adobe Illustrator 23.0.5, SVG Export Plug-In . SVG Version: 6.00 Build 0)  -->
<svg version="1.1" id="Capa_1" xmlns="http://www.w3.org/2000/svg" xmlns:xlink="http://www.w3.org/1999/xlink" x="0px" y="0px"
	 viewBox="0 0 22 20" style="enable-background:new 0 0 22 20;" xml:space="preserve">
<style type="text/css">
	.st0{fill:#F78A0E;fill-opacity:0.6;}
</style>
<path class="st0" d="M21,0H1C0.7,0,0.5,0.1,0.3,0.3C0.1,0.5,0,0.7,0,1v8c0,0.3,0.1,0.5,0.3,0.7C0.5,9.9,0.7,10,1,10h3v9
	c0,0.3,0.1,0.5,0.3,0.7C4.5,19.9,4.7,20,5,20h12c0.3,0,0.5-0.1,0.7-0.3S18,19.3,18,19v-9h3c0.3,0,0.5-0.1,0.7-0.3
	C21.9,9.5,22,9.3,22,9V1c0-0.3-0.1-0.5-0.3-0.7C21.5,0.1,21.3,0,21,0z M6,18v-2c0.5,0,1,0.2,1.4,0.6C7.8,17,8,17.5,8,18H6z M16,18
	h-2c0-0.5,0.2-1,0.6-1.4C15,16.2,15.5,16,16,16V18z M16,14c-1.1,0-2.1,0.4-2.8,1.2C12.4,15.9,12,16.9,12,18h-2
	c0-1.1-0.4-2.1-1.2-2.8C8.1,14.4,7.1,14,6,14V6h10V14z M20,8h-2V5c0-0.3-0.1-0.5-0.3-0.7C17.5,4.1,17.3,4,17,4H5
	C4.7,4,4.5,4.1,4.3,4.3C4.1,4.5,4,4.7,4,5v3H2V2h18V8z M11,13c0.6,0,1.2-0.2,1.7-0.5c0.5-0.3,0.9-0.8,1.1-1.3
	c0.2-0.5,0.3-1.2,0.2-1.7c-0.1-0.6-0.4-1.1-0.8-1.5c-0.4-0.4-1-0.7-1.5-0.8C11,6.9,10.4,7,9.9,7.2c-0.5,0.2-1,0.6-1.3,1.1
	C8.2,8.8,8,9.4,8,10c0,0.8,0.3,1.6,0.9,2.1C9.4,12.7,10.2,13,11,13z M11,9c0.2,0,0.4,0.1,0.6,0.2c0.2,0.1,0.3,0.3,0.4,0.4
	C12,9.8,12,10,12,10.2s-0.1,0.4-0.3,0.5c-0.1,0.1-0.3,0.2-0.5,0.3s-0.4,0-0.6-0.1c-0.2-0.1-0.3-0.2-0.4-0.4C10.1,10.4,10,10.2,10,10
	c0-0.3,0.1-0.5,0.3-0.7C10.5,9.1,10.7,9,11,9z"/>
</svg>
