<?xml version="1.0" encoding="utf-8"?>
<!-- Generator: Adobe Illustrator 23.0.5, SVG Export Plug-In . SVG Version: 6.00 Build 0)  -->
<svg version="1.1" id="Capa_1" xmlns="http://www.w3.org/2000/svg" xmlns:xlink="http://www.w3.org/1999/xlink" x="0px" y="0px"
	 viewBox="0 0 20 22" style="enable-background:new 0 0 20 22;" xml:space="preserve">
<style type="text/css">
	.st0{fill:#F78A0E;fill-opacity:0.6;}
</style>
<path class="st0" d="M10,13.8c-0.7,0-1.4-0.3-1.9-0.8c-0.5-0.5-0.8-1.2-0.8-1.9c0-0.7,0.3-1.4,0.8-1.9C8.7,8.9,9.3,8.6,10,8.6
	c0.7,0,1.4,0.3,1.9,0.8c0.5,0.5,0.8,1.2,0.8,1.9c0,0.7-0.3,1.4-0.8,1.9c-0.2,0.2-0.5,0.4-0.8,0.6C10.7,13.8,10.4,13.8,10,13.8z
	 M19.7,8.3l-1.5,1.3c0.1,0.4,0.1,0.9,0.1,1.4c0,0.5,0,0.9-0.1,1.4l1.5,1.3c0.1,0.1,0.2,0.2,0.2,0.4c0,0.1,0,0.3,0,0.4l0,0.1
	c-0.4,1.2-1.1,2.3-1.9,3.2l0,0c-0.1,0.1-0.2,0.2-0.4,0.2c-0.1,0-0.3,0-0.4,0l-1.9-0.7c-0.7,0.6-1.5,1-2.3,1.3l-0.4,2
	c0,0.1-0.1,0.3-0.2,0.4c-0.1,0.1-0.2,0.2-0.4,0.2l-0.1,0c-1.2,0.2-2.5,0.2-3.7,0l-0.1,0c-0.2,0-0.3-0.1-0.4-0.2
	c-0.1-0.1-0.2-0.2-0.2-0.4l-0.4-2c-0.8-0.3-1.6-0.8-2.3-1.3L2.9,18c-0.1,0.1-0.3,0.1-0.4,0c-0.1,0-0.3-0.1-0.4-0.2l0,0
	c-0.8-1-1.4-2-1.9-3.2l0-0.1c-0.1-0.3,0-0.6,0.2-0.8l1.6-1.3c-0.1-0.4-0.1-0.9-0.1-1.3c0-0.4,0-0.9,0.1-1.3L0.3,8.3
	C0.2,8.2,0.1,8.1,0.1,8c0-0.1,0-0.3,0-0.4l0-0.1c0.4-1.2,1-2.3,1.9-3.2l0,0C2.2,4.1,2.3,4,2.4,3.9c0.1,0,0.3,0,0.4,0l1.9,0.7
	c0.7-0.6,1.5-1,2.3-1.3l0.4-2c0-0.1,0.1-0.3,0.2-0.4c0.1-0.1,0.2-0.2,0.4-0.2l0.1,0c1.2-0.2,2.5-0.2,3.7,0l0.1,0
	c0.1,0,0.3,0.1,0.4,0.2c0.1,0.1,0.2,0.2,0.2,0.4l0.4,2c0.8,0.3,1.6,0.8,2.3,1.3l1.9-0.7c0.1-0.1,0.3-0.1,0.4,0
	c0.1,0,0.3,0.1,0.4,0.2l0,0c0.8,1,1.4,2,1.9,3.2l0,0.1C20,7.8,19.9,8.1,19.7,8.3z M10,7.1c-2.3,0-4.1,1.8-4.1,4.1
	c0,2.3,1.8,4.1,4.1,4.1c2.3,0,4.1-1.8,4.1-4.1C14.1,8.9,12.3,7.1,10,7.1z"/>
</svg>
