<svg width="23" height="22" viewBox="0 0 23 22" fill="none" xmlns="http://www.w3.org/2000/svg">
<path fill-rule="evenodd" clip-rule="evenodd" d="M9.00021 0.999917C9.00039 0.791366 8.93537 0.587975 8.81424 0.418207C8.69311 0.248439 8.52193 0.12079 8.32467 0.0531239C8.1274 -0.0145425 7.91391 -0.0188402 7.71408 0.0408324C7.51424 0.100505 7.33807 0.221162 7.21021 0.385917L0.210206 9.38592C0.0736511 9.56146 -0.000488281 9.77752 -0.000488281 9.99992C-0.000488281 10.2223 0.0736511 10.4384 0.210206 10.6139L7.21021 19.6139C7.33807 19.7787 7.51424 19.8993 7.71408 19.959C7.91391 20.0187 8.1274 20.0144 8.32467 19.9467C8.52193 19.879 8.69311 19.7514 8.81424 19.5816C8.93537 19.4119 9.00039 19.2085 9.00021 18.9999V15.0099C14.3792 15.1219 16.9632 16.1429 18.2612 17.2529C19.4952 18.3079 19.7212 19.5489 19.9562 20.8489L20.0172 21.1839C20.0621 21.4236 20.193 21.6387 20.3853 21.7886C20.5777 21.9385 20.8182 22.013 21.0616 21.998C21.305 21.983 21.5346 21.8796 21.707 21.7072C21.8795 21.5348 21.9831 21.3053 21.9982 21.0619C22.1692 18.3139 21.9122 14.3319 19.9712 11.0009C18.0872 7.76792 14.6942 5.28192 9.00021 5.02192V0.999917Z" fill="#FF8F6B"/>
</svg>
