<svg width="18" height="18" viewBox="0 0 18 18" fill="none" xmlns="http://www.w3.org/2000/svg">
<path fill-rule="evenodd" clip-rule="evenodd" d="M4.40967 1C4.40967 0.447715 4.85739 0 5.40967 0H12.4652C13.0175 0 13.4652 0.447715 13.4652 1V3.96875H16.875C17.1531 3.96875 17.4186 4.08452 17.6078 4.28826C17.797 4.49201 17.8928 4.76533 17.8723 5.04262L16.9903 16.9489C16.9516 17.4711 16.5167 17.875 15.9931 17.875H1.88195C1.35832 17.875 0.92336 17.4711 0.884679 16.9489L0.00273492 5.04262C-0.0178051 4.76533 0.0780331 4.49201 0.267244 4.28826C0.456454 4.08452 0.721951 3.96875 1 3.96875H4.40967V1ZM11.4652 6.73264V5.96875H6.40967V6.73264C6.40967 7.28492 5.96196 7.73264 5.40967 7.73264C4.85739 7.73264 4.40967 7.28492 4.40967 6.73264V5.96875H2.07682L2.81061 15.875H15.0644L15.7982 5.96875H13.4652V6.73264C13.4652 7.28492 13.0175 7.73264 12.4652 7.73264C11.9129 7.73264 11.4652 7.28492 11.4652 6.73264ZM11.4652 2V3.96875H6.40967V2H11.4652ZM5.40967 12.3472C4.85739 12.3472 4.40967 12.7949 4.40967 13.3472C4.40967 13.8995 4.85739 14.3472 5.40967 14.3472H12.4652C13.0175 14.3472 13.4652 13.8995 13.4652 13.3472C13.4652 12.7949 13.0175 12.3472 12.4652 12.3472H5.40967Z" fill="white"/>
</svg>
