<?xml version="1.0" encoding="utf-8"?>
<!-- Generator: Adobe Illustrator 23.0.5, SVG Export Plug-In . SVG Version: 6.00 Build 0)  -->
<svg version="1.1" id="Capa_1" xmlns="http://www.w3.org/2000/svg" xmlns:xlink="http://www.w3.org/1999/xlink" x="0px" y="0px"
	 viewBox="0 0 24 24" style="enable-background:new 0 0 24 24;" xml:space="preserve">
<style type="text/css">
	.st0{fill-rule:evenodd;clip-rule:evenodd;fill:#F78A0E;fill-opacity:0.6;}
</style>
<path class="st0" d="M13,17.3c-1.8,0-3.6-1.1-4.7-2.5c-5.1,0-5.3,7.3-5.3,7.3h20c0,0,0.4-7.4-5.4-7.4C16.6,16.2,14.8,17.3,13,17.3z"
	/>
<path class="st0" d="M17.3,8.5c0,2.1-1.9,6.1-4.3,6.1c-2.4,0-4.3-4-4.3-6.1c0-2.1,1.9-3.8,4.3-3.8C15.4,4.6,17.3,6.4,17.3,8.5z"/>
<path class="st0" d="M20.5,6.4c0-0.5-0.7-0.9-1.5-0.9v-1c0-0.1,0.1-3.6-6-3.6c-6,0-6,3.5-6,3.6v1c0,0,0,0,0,0
	c-0.8,0-1.5,0.4-1.5,0.9v4.2c0,0.5,0.7,0.9,1.5,0.9s1.5-0.4,1.5-0.9V6.4c0-0.1,0-0.1-0.1-0.2V5.1C8.4,4.9,8,2.3,13,2.3
	c5.1,0,4.5,2.6,4.5,2.7v1.2c0,0,0,0.1,0,0.1v4.3c0,0.5,0.7,0.9,1.5,0.9c0,0,0,0,0,0v1.6h-1.5v1.5h2.9L20.5,6.4z"/>
</svg>
